<?xml version="1.0" encoding="utf-8"?>
<!-- Generator: Adobe Illustrator 16.0.0, SVG Export Plug-In . SVG Version: 6.00 Build 0)  -->
<!DOCTYPE svg PUBLIC "-//W3C//DTD SVG 1.1//EN" "http://www.w3.org/Graphics/SVG/1.1/DTD/svg11.dtd">
<svg version="1.1"
	 id="svg1246" xmlns:dc="http://purl.org/dc/elements/1.1/" xmlns:cc="http://creativecommons.org/ns#" xmlns:rdf="http://www.w3.org/1999/02/22-rdf-syntax-ns#" xmlns:svg="http://www.w3.org/2000/svg" xmlns:sodipodi="http://sodipodi.sourceforge.net/DTD/sodipodi-0.dtd" xmlns:inkscape="http://www.inkscape.org/namespaces/inkscape" inkscape:version="0.92.3 (2405546, 2018-03-11)" sodipodi:docname="CAT PLUS TEXT blue with less detail-small.svg"
	 xmlns="http://www.w3.org/2000/svg" xmlns:xlink="http://www.w3.org/1999/xlink" x="0px" y="0px" width="390.5px" height="95px"
	 viewBox="0 0 390.5 95" enable-background="new 0 0 390.5 95" xml:space="preserve">
<g id="Layer_1" display="none">
	<g id="g497" display="inline">
		<g id="XMLID_1_">
			<g id="g494">
				<g id="g6">
					<g id="g4">
						<path id="path2" fill="#754569" d="M81.932,44.207c4.796,6.361,6.344,12.069,6.743,13.9c-2.438-1.357-4.263-1.651-5.396-1.651
							c-0.977,0-1.501,0.219-1.524,0.231l-0.388,0.168l0.295,0.299c0.913,0.913,2.478,2.265,3.565,3.19
							c-0.884-0.243-1.762-0.364-2.618-0.364c-3.402,0-5.338,1.883-5.418,1.964l-0.411,0.404l0.572,0.087
							c3.456,0.497,4.986,6.592,5.24,7.725C71.766,77.873,63.515,88.411,62.26,90.052C46.447,79.659,42.859,62.089,42.64,49.153
							c-0.219-12.971,2.813-24,3.333-25.797C66.026,27.78,76.594,37.129,81.932,44.207z"/>
					</g>
				</g>
				<g id="g12">
					<g id="g10">
						<path id="path8" fill="#754569" d="M185.483,64.769c0.041-1.871,0.457-7.776,3.941-14.941
							c3.87-7.978,12.444-19.181,31.279-27.391c0.878,1.555,6.044,11.099,7.805,23.532c1.463,10.279,0.763,24.318-8.885,37.3
							l-0.255,0.029l0.19,0.052c-1.986,2.657-4.344,5.269-7.141,7.794c-1.068-1.734-6.847-10.36-18.644-15.721
							c0.028-1.162,0.357-7.441,3.65-8.591l0.549-0.19l-0.485-0.324c-0.064-0.04-1.594-1.046-4.003-1.046
							c-1.41,0-2.814,0.341-4.189,1.023c0.89-1.116,2.167-2.745,2.883-3.813l0.237-0.353L192,62.036
							c-0.017,0-0.197-0.035-0.508-0.035C190.648,62.001,188.43,62.279,185.483,64.769z"/>
					</g>
				</g>
				<g id="g102">
					<g id="g100">
						<path id="path98" fill="#BC7444" d="M111.997,67.007c-4.285,0.731-7.607-0.265-7.665-0.284l-0.266-0.081l-0.104-0.267
							c-0.09-0.237-0.186-0.467-0.277-0.703c-3.473,15.023,9.898,30.419,21.62,39.21C115.174,95.114,110.03,80.36,111.997,67.007z"
							/>
					</g>
				</g>
				<g id="g108">
					<g id="g106">
						<path id="path104" fill="#BC7444" d="M124.149,63.862c3.115-5.787,7.94-10.548,11.58-16.126
							c-0.25-1.528-0.554-2.856-0.788-3.766c-1.854,3.178-7.216,11.93-13.271,17.991c-1.327,1.325-2.707,2.332-4.088,3.095
							c0.156,11.653,5.034,23.542,13.499,31.16C124.727,86.973,119.526,74.261,124.149,63.862z"/>
					</g>
				</g>
				<g id="g114">
					<g id="g112">
						<path id="path110" fill="#BC7444" d="M140.904,72.529c0.385-1.927,1.801-3.595,3.556-5.007l-2.62-1.048l0.283-0.561
							c0.017-0.037,0.35-0.671,1.041-1.055c-5.316-1.142-7.48,4.355-8.037,8.249c-1.156,8.089,3.467,15.6,1.733,24.266
							c-0.577,1.733-2.311,3.466-2.311,5.777C144.948,95.639,138.015,82.928,140.904,72.529z"/>
					</g>
				</g>
				<g id="g120">
					<g id="g118">
						<path id="path116" fill="#BC7444" d="M139.17,100.838c14.195-2.366,22.467-16.303,25.005-30.608
							c-3.215,0.295-6.526-0.221-8.607-0.666C155.875,81.389,148.269,93.345,139.17,100.838z"/>
					</g>
				</g>
				<g id="g126">
					<g id="g124">
						<path id="path122" fill="#F49758" d="M199.257,186.348c16.163,2.31,38.728,7.43,52.853,0.188
							c-0.657-3.765-3.022-7.812-5.05-10.726c-15.342,7.715-33.112,11.547-47.226,1.871c15.725,2.245,35.635,1.34,46.706-10.035
							c-2.672-1.326-5.665-1.518-5.718-1.521l-1.947-0.11l1.692-0.972c1.759-1.005,2.942-2.985,3.708-4.815
							c-17.596,8.209-40.154,11.336-54.609-1.908c-5.705,4.092-12.725,6.514-20.313,6.514c-19.037,0-34.526-15.207-34.526-33.897
							c0-18.689,15.49-33.897,34.526-33.897c10.269,0,19.5,4.429,25.831,11.439c2.32,0.518,4.641,1.256,6.964,2.184
							c6.365,2.83,11.647,8.901,16.908,12.659c0.619-6.515,2.667-12.82,4.257-16.917c-11.616-11.445-30.012-13.987-37.92-28.673
							c14.901,5.288,27.403,14.574,39.834,24.2c0.057-0.118,0.09-0.185,0.095-0.194l0.236-0.479l0.498,0.208
							c4.76,1.982,11,1.722,14.253,1.399c-2.045-1.104-5.067-3.542-6.928-8.759c-2.75-7.701-11.076-10.018-11.162-10.035
							l-2.057-0.555c-2.097,2.831-4.61,5.61-7.615,8.296l-0.271,0.242l-0.174-0.317c-0.057-0.099-5.846-10-18.887-15.859
							l-0.312-0.074v-0.192c0-0.307,0.185-7.192,3.628-9.07c-0.606-0.283-1.658-0.688-3.114-0.688c-1.768,0-3.49,0.579-5.205,1.722
							l-1.607,1.081l1.248-1.508c0.029-0.029,2.312-2.802,3.553-4.564c-0.878,0.017-3.074,0.376-6.014,3.04l-0.45,0.411
							l-0.029-0.613c-0.006-0.07-0.294-7.014,3.975-15.813c3.929-8.101,12.641-19.505,31.824-27.796l0.236-0.103l0.127,0.219
							c0.064,0.104,6.072,10.319,8.008,23.965c1.461,10.284,0.786,24.283-8.673,37.282l10.77-1.345
							c10.931-32.829-6.633-63.027-9.031-66.91c-37.369,17.274-44.395,36.26-48.178,46.48c-1.122,3.033-1.931,5.223-3.219,6.367
							c-1.747,1.553-4.132,2.245-6.575,2.469c-2.538,14.305-10.81,28.242-25.005,30.608c9.099-7.493,16.704-19.45,16.397-31.274
							c-0.392-0.083-0.739-0.164-1.035-0.237c-0.092,0.751-0.231,1.485-0.428,2.185c-0.844,3.009-3.362,7.961-10.815,7.961
							c-0.226,0-0.445-0.006-0.676-0.012l-2.363-0.092l2.138-1.006c0.058-0.028,5.368-2.57,6.292-6.037
							c0.307-1.149,0.092-2.253-0.642-3.375l-3.579-1.43c-1.755,1.412-3.171,3.08-3.556,5.007
							c-2.889,10.399,4.044,23.11-6.355,30.621c0-2.313,1.733-4.044,2.311-5.777c1.734-8.667-2.889-16.177-1.733-24.266
							c0.557-3.895,2.721-9.391,8.037-8.249c0.262-0.146,0.571-0.257,0.941-0.284c0.867-0.066,1.801,0.357,2.788,1.247
							c0.122-0.075,0.244-0.152,0.367-0.225c-0.123,0.073-0.245,0.15-0.367,0.225c0.644,0.581,1.31,1.354,1.996,2.335
							c1.005,1.439,1.312,2.94,0.907,4.467c-0.659,2.466-3.05,4.43-4.841,5.603c5.125-0.612,7.205-4.05,8.036-7.025
							c1.543-5.505-0.462-12.289-3.125-13.768c-4.836-2.687-14.894,3.958-14.998,4.021l-3.091,2.063l2.322-2.901
							c2.57-3.213,2.298-8.789,1.631-12.878c-3.64,5.579-8.465,10.34-11.58,16.126c-4.623,10.399,0.578,23.11,6.932,32.354
							c-8.464-7.618-13.343-19.507-13.499-31.16c-1.918,1.062-3.833,1.653-5.586,1.951c-1.967,13.354,3.177,28.107,13.307,37.875
							c-11.721-8.791-25.093-24.188-21.62-39.21C94.435,41.874,76.921,29.467,63.78,23.25c-13.057-6.188-24.468-7.649-26.571-7.875
							c-0.491,1.023-2.583,6.679-5.506,32.96C28.646,75.833,35.607,83.841,37,85.142c7.465-3.317,13.663-1.688,13.923-1.613
							l2.283,0.618l-2.312,0.503c-15.039,3.248-20.172,13.615-21.863,19.104c10.185-4.681,19.718-10.273,29.317-15.878
							C45.364,77.19,42.262,61.186,42.061,49.147c-0.237-14.207,3.396-26.098,3.433-26.219l0.081-0.248l0.26,0.052
							C66.252,27.18,76.998,36.69,82.417,43.883c5.882,7.817,6.933,14.687,6.944,14.751l0.087,0.606l-0.52-0.318
							c-3.397-2.04-5.599-1.975-6.495-1.819c1.561,1.49,4.333,3.772,4.362,3.795l1.508,1.243l-1.802-0.751
							c-1.33-0.549-2.635-0.833-3.895-0.833c-2.264,0-3.853,0.918-4.575,1.438c3.738,1.184,5.107,7.932,5.165,8.239l0.034,0.179
							l-0.15,0.109c-4.16,2.945-7.938,6.314-11.091,9.444c3.495-2.232,8.51-4.813,11.137-1.661
							c-12.577,8.386-24.733,16.775-35.955,26.821c-0.247,1.491-0.809,5.176-1.188,9.845c4.842-4.4,10.239-7.779,17.501-7.779
							c-5.652,6.78-11.581,13.007-17.852,18.953c0.06,2.337,0.216,4.691,0.513,6.971c0.582,4.46-0.478,7.674-2.53,10.177
							c4.15-1.641,8.11-3.799,11.78-6.634c-4.044,9.821-10.401,18.487-20.222,23.11c-6.042,2.556-14.326,5.483-21.66,9.43
							c-2.265,4.099-2.885,8.045-2.623,11.568c15.687-13.979,36.861-22.925,56.06-16.381c-19.644-1.15-38.709,8.67-51.419,23.689
							c-0.638,0.681-1.237,1.396-1.807,2.132c1.561,2.942,3.207,4.788,3.39,4.983l0.075,0.109c0.022,0.037,1.455,2.661,0.715,5.688
							c11.822-14.307,33.091-20.267,51.935-19.846c-17.335,2.795-32.505,11.543-44.464,25.202c2.107-0.916,4.247-2.003,4.917-2.841
							c0.411-0.512,1.301-0.77,2.647-0.77c0.33,0,0.688,0.019,1.076,0.047c3.857,0.311,9.562,2.093,14.016,5.293
							c7.859-2.473,16.616-2.86,25.276-0.936c3.467,0.573,8.089-1.734,10.978-4.623c-7.181,7.58-16.291,14.057-25.807,18.859
							c1.411,1.75,2.915,3.396,4.512,4.938c9.732-1.987,18.868-6.896,22.451-15.135c1.526,10.311-5.521,16.327-12.146,22.891
							c2.63,1.523,5.425,2.855,8.384,3.992c11.304-3.147,23.42-3.752,35.538-2.613c0.578,0,2.311-2.313,3.466-4.047
							c-0.534,5.074-1.819,10.021-3.835,14.621c9.103,2.734,13.818,5.93,15.13,8.408c0.161,0.309,0.254,0.565,0.294,0.797
							c1.34-0.195,4.426-1.094,4.98-5.223l0.115-0.891l0.764,0.479c0.063,0.041,1.617,1.029,1.865,2.659
							c0.064,0.409,0.041,0.821-0.069,1.229c0.705-0.348,1.569-0.814,2.407-1.379c-0.671-5.961-3.004-11.656-7.208-16.08
							c-0.578-0.578,0-1.733,0-2.891c4.845,3.989,8.424,8.821,12.125,13.596c1.74-0.978,4.489-1.582,7.842-2.32
							c0.866-0.193,1.763-0.391,2.678-0.603c-2.8-4.645-5.862-9.301-9.185-14.19c-0.445-0.166-0.888-0.342-1.328-0.525
							c-0.577,0,0-1.156,0.578-0.578c0.253,0.37,0.5,0.735,0.75,1.104c9.25,3.492,19.244,3.272,28.63,6.089
							c1.754-1.046,3.532-2.181,5.277-3.394c-5.287-6.301-10.881-12.274-20.213-10.156c1.733-0.574,4.044-2.311,5.777-1.731
							c8.477,1.106,16.483,2.677,24.619,3.224c1.39-1.521,2.608-3.084,3.588-4.678c0.064-0.104,0.133-0.209,0.198-0.314
							c-6.86-6.537-12.981-13.951-23.206-11.518c8.089-5.201,19.066-8.666,28.311-4.046c2.201,0.927,4.425,1.731,6.667,2.46
							c2.402-1.896,4.944-3.529,7.537-4.765c-9.367-9.005-21.499-11.925-34.425-8.093
							C184.235,186.348,192.901,185.189,199.257,186.348z M62.289,142.092c-1.468-3.85-2.271-8.038-2.271-12.417
							c0-18.69,14.64-33.897,32.637-33.897c17.998,0,32.644,15.207,32.644,33.897c0,4.657-0.907,9.093-2.553,13.134
							c-4.952,12.189-16.576,20.766-30.09,20.766C78.875,163.57,67.067,154.656,62.289,142.092z M147.403,221.757
							c-0.405,0.388-0.971,0.769-1.577,1.253c-0.612,0.491-1.369,0.948-2.184,1.469c-0.423,0.23-0.861,0.479-1.318,0.729
							c-0.457,0.263-0.958,0.451-1.461,0.688c-0.503,0.248-1.041,0.43-1.589,0.635c-0.543,0.222-1.12,0.369-1.704,0.533
							c-1.174,0.328-2.41,0.568-3.68,0.715c-0.636,0.082-1.277,0.099-1.924,0.148c-0.647-0.006-1.294,0.028-1.948-0.006
							c-0.647-0.041-1.293-0.068-1.936-0.152c-0.641-0.063-1.276-0.177-1.901-0.285c-1.259-0.219-2.472-0.543-3.622-0.91
							c-1.162-0.344-2.241-0.799-3.258-1.23c-1.005-0.449-1.942-0.914-2.779-1.395c-0.844-0.455-1.589-0.932-2.236-1.367
							s-1.196-0.833-1.646-1.168c-0.826-0.631-1.282-1.063-1.34-1.115c0.029,0.02,0.156,0.104,0.375,0.249
							c0.248,0.166,0.625,0.386,1.092,0.683c0.948,0.578,2.341,1.34,4.056,2.139c0.855,0.404,1.803,0.785,2.808,1.186
							c1.012,0.369,2.086,0.744,3.218,1.053c0.561,0.174,1.15,0.295,1.733,0.443c0.589,0.109,1.184,0.249,1.792,0.342
							c0.606,0.098,1.218,0.195,1.836,0.25c0.613,0.076,1.238,0.104,1.855,0.131c0.625,0.041,1.248,0.021,1.867,0.023
							c0.618-0.041,1.236-0.054,1.843-0.123c1.213-0.139,2.408-0.301,3.542-0.589c0.566-0.14,1.126-0.276,1.658-0.455
							c0.537-0.169,1.069-0.317,1.566-0.524c1.011-0.371,1.929-0.806,2.784-1.201c0.422-0.215,0.81-0.439,1.196-0.644
							c0.382-0.196,0.746-0.39,1.063-0.604c0.646-0.413,1.247-0.732,1.682-1.073c0.791-0.561,1.299-0.906,1.415-0.982
							C148.582,220.693,148.136,221.104,147.403,221.757z M177.719,196.838c-0.047-0.107-0.104-0.242-0.168-0.393
							c-0.069-0.149-0.127-0.323-0.225-0.504c-0.098-0.178-0.196-0.369-0.294-0.571c-0.093-0.216-0.249-0.394-0.37-0.604
							c-0.116-0.221-0.284-0.404-0.44-0.603c-0.005-0.011-0.01-0.024-0.022-0.029c-5.835,8.402-12.86,12.618-19.384,14.607
							c-7.812,9.791-17.437,12.266-25.161,12.266c-1.306,0-2.56-0.071-3.739-0.192c-8.839-0.883-15.419-4.439-15.697-4.592
							l0.075-0.139c-1.647,0.761-2.23,2.01-2.912,3.475c-1.064,2.279-2.393,5.116-8.453,6.933c-1.577,0.475-2.946,0.661-4.13,0.661
							c-3.542,0-5.426-1.75-6.322-3.014c-2.194-3.115-1.97-8.199,0.509-11.58c2.26-3.078,5.39-3.918,7.875-4.016
							c-5.032-1.883-10.099-5.055-14.716-10.127c-0.121,0.23-0.224,0.479-0.305,0.729c-0.167,0.504-0.266,1-0.33,1.429
							c-0.063,0.428-0.11,0.799-0.122,1.052c-0.017,0.26-0.029,0.41-0.029,0.41s-0.161-0.579-0.179-1.485
							c-0.006-0.448,0.028-0.979,0.168-1.542c0.139-0.563,0.392-1.16,0.843-1.644c0.22-0.241,0.503-0.433,0.792-0.568
							c0.289-0.149,0.605-0.203,0.901-0.243c0.3-0.027,0.584-0.006,0.849,0.029c0.26,0.045,0.503,0.098,0.717,0.172
							c0.22,0.063,0.409,0.146,0.578,0.229c0.167,0.066,0.311,0.139,0.422,0.199c0.231,0.129,0.358,0.207,0.358,0.207
							s-0.146-0.031-0.399-0.098c-0.243-0.074-0.606-0.148-1.034-0.213c-0.207-0.04-0.444-0.051-0.681-0.063
							c-0.242-0.007-0.491,0.006-0.745,0.047c-0.243,0.047-0.498,0.113-0.722,0.234c-0.122,0.063-0.238,0.133-0.341,0.214
							c5.638,6.245,11.964,9.554,18.065,11.117c7.049,1.812,13.791,1.3,18.818,0.313c4.316-0.842,7.367-2.037,8.238-2.399
							c0.81-3.619-0.161-7.459-0.514-8.647c-8.782-0.398-24.41-12.658-24.41-24.256c0-10.688,9.522-17.332,24.844-17.332
							c9.238,0,17.529,3.112,21.643,8.137c2.473,3.016,3.379,6.639,2.612,10.471c-1.733,8.652-13.036,22.316-23.487,22.964
							c0.428,1.526,1.225,5.147,0.479,8.726c1.675,0.623,7.916,2.731,15.587,2.568c3.265-0.072,6.355-0.525,9.274-1.355
							c7.713-2.193,14.185-7.037,19.303-14.469c-0.081-0.052-0.168-0.104-0.249-0.16c-0.219-0.099-0.427-0.237-0.658-0.289
							c-0.226-0.088-0.452-0.121-0.665-0.168c-0.219-0.012-0.434-0.052-0.63-0.041c-0.393-0.004-0.727,0.035-0.958,0.082
							c-0.231,0.039-0.365,0.08-0.365,0.08s0.111-0.088,0.33-0.186c0.225-0.094,0.548-0.242,0.966-0.307
							c0.207-0.045,0.438-0.051,0.686-0.062c0.243,0.021,0.508,0.021,0.775,0.104c0.266,0.055,0.525,0.171,0.792,0.287
							c0.237,0.155,0.502,0.295,0.71,0.492c0.208,0.202,0.428,0.397,0.583,0.631c0.173,0.228,0.335,0.447,0.444,0.691
							c0.116,0.23,0.255,0.451,0.324,0.682c0.082,0.228,0.145,0.445,0.209,0.644c0.075,0.196,0.092,0.389,0.126,0.549
							c0.023,0.169,0.052,0.313,0.07,0.429c0.041,0.237,0.051,0.375,0.051,0.375S177.816,197.052,177.719,196.838z"/>
					</g>
				</g>
				<g id="g132">
					<g id="g130">
						<path id="path128" fill="#BC7444" d="M71.991,79.967c-5.725,5.684-9.375,10.57-9.43,10.645l-0.162,0.215l-0.226-0.146
							c-1.363-0.884-2.632-1.825-3.825-2.806c-9.599,5.605-19.132,11.198-29.317,15.878c-0.195,0.633-0.347,1.204-0.46,1.689
							c7.685-6.894,18.304-1.71,18.418-1.653l0.387,0.191l-0.08,0.428c-0.003,0.019-0.05,0.271-0.124,0.718
							c11.223-10.045,23.378-18.434,35.955-26.82C80.501,75.154,75.485,77.735,71.991,79.967z"/>
					</g>
				</g>
				<g id="g210">
					<g id="g208">
						<path id="path206" fill="#BC7444" d="M223.311,106.401c0.902-2.323,1.656-3.938,1.914-4.474
							c-12.431-9.625-24.933-18.912-39.834-24.2C193.299,92.415,211.695,94.957,223.311,106.401z"/>
					</g>
				</g>
				<g id="g252">
					<g id="g250">
						<path id="path248" d="M220.408,83.17c-0.081,0.116-0.167,0.226-0.249,0.342l-0.601-0.162c0.018-0.029,0.042-0.052,0.064-0.081
							L220.408,83.17z"/>
					</g>
				</g>
				<g id="g258">
					<g id="g256">
						<path id="path254" d="M219.623,83.269c-0.023,0.029-0.047,0.052-0.064,0.081l-0.19-0.052L219.623,83.269z"/>
					</g>
				</g>
				<g id="g276">
					<g id="g274">
						<path id="path272" d="M192.901,75.607c0-0.307,0.185-7.192,3.628-9.07c-0.606-0.283-1.658-0.688-3.114-0.688
							c-1.768,0-3.49,0.579-5.205,1.722l-1.607,1.081l1.248-1.508c0.029-0.029,2.312-2.802,3.553-4.564
							c-0.878,0.017-3.074,0.376-6.014,3.04l-0.45,0.411l-0.029-0.613c-0.006-0.07-0.294-7.014,3.975-15.813
							c3.929-8.101,12.641-19.505,31.824-27.796l0.236-0.103l0.127,0.219c0.064,0.104,6.072,10.319,8.008,23.965
							c1.461,10.284,0.786,24.283-8.673,37.282l-0.785,0.099c9.648-12.982,10.348-27.021,8.885-37.3
							c-1.761-12.433-6.927-21.977-7.805-23.532c-18.835,8.21-27.409,19.413-31.279,27.391c-3.484,7.165-3.9,13.07-3.941,14.941
							c2.947-2.489,5.165-2.767,6.009-2.767c0.312,0,0.491,0.035,0.508,0.035l0.416,0.093l-0.237,0.353
							c-0.717,1.068-1.994,2.697-2.883,3.813c1.375-0.682,2.78-1.023,4.189-1.023c2.409,0,3.939,1.006,4.003,1.046l0.485,0.324
							l-0.549,0.19c-3.293,1.149-3.623,7.429-3.65,8.591c11.796,5.361,17.575,13.987,18.644,15.721
							c2.796-2.525,5.154-5.137,7.141-7.794l0.601,0.162c-2.097,2.831-4.61,5.61-7.615,8.296l-0.271,0.242l-0.174-0.317
							c-0.057-0.099-5.846-10-18.887-15.859l-0.312-0.074V75.607L192.901,75.607z"/>
					</g>
				</g>
				<g id="g486">
					<g id="g484">
						<path id="path482" d="M62.173,90.681C45.949,80.167,42.281,62.29,42.061,49.147c-0.237-14.207,3.396-26.098,3.433-26.219
							l0.081-0.248l0.26,0.052C66.252,27.18,76.998,36.69,82.417,43.883c5.882,7.817,6.933,14.687,6.944,14.751l0.087,0.606
							l-0.52-0.318c-3.397-2.04-5.599-1.975-6.495-1.819c1.561,1.49,4.333,3.772,4.362,3.795l1.508,1.243l-1.802-0.751
							c-1.33-0.549-2.635-0.833-3.895-0.833c-2.264,0-3.853,0.918-4.575,1.438c3.738,1.184,5.107,7.932,5.165,8.239l0.034,0.179
							l-0.15,0.109c-11.717,8.291-20.435,19.974-20.521,20.089l-0.162,0.215L62.173,90.681z M42.639,49.152
							c0.219,12.936,3.807,30.506,19.62,40.899c1.254-1.641,9.505-12.179,20.332-19.892c-0.254-1.132-1.785-7.228-5.24-7.725
							l-0.572-0.087l0.411-0.404c0.08-0.081,2.016-1.964,5.418-1.964c0.856,0,1.734,0.121,2.618,0.364
							c-1.087-0.925-2.652-2.277-3.565-3.19l-0.295-0.299l0.388-0.168c0.023-0.012,0.548-0.231,1.524-0.231
							c1.133,0,2.959,0.294,5.396,1.651c-0.398-1.831-1.947-7.539-6.743-13.9c-5.337-7.077-15.905-16.426-35.959-20.852
							C45.453,25.152,42.42,36.182,42.639,49.152z"/>
					</g>
				</g>
				<g id="g492">
					<g id="g490">
						<path id="path488" d="M146.594,67.132c-1.19-1.253-1.981-1.438-2.409-1.41c-0.231,0.018-0.427,0.103-0.584,0.214
							L146.594,67.132z M172.888,60.991c3.854-10.417,11.029-29.806,49.236-47.341l0.451-0.208l0.271,0.417
							c0.22,0.323,21.395,33.001,9.314,68.677l-0.116,0.341l-7.262,0.913c2.854,1.271,7.632,4.183,9.683,9.919
							c2.75,7.696,8.181,8.863,8.239,8.875l3.01,0.601l-3.028,0.532c-0.398,0.075-9.607,1.652-16.563-0.988
							c-1.19,2.542-6.575,14.715-6.067,25.814c0.469,10.376,2.092,12.895,3.271,14.739c0.26,0.403,0.503,0.786,0.71,1.208
							c0.075,0.148,7.893,14.898,21.875,11.255l0.861-0.226l-0.145,0.877c-0.045,0.267-1.011,5.856-4.258,8.765
							c2.987,0.509,9.463,2.317,9.463,8.478v1.394l-0.988-0.982c-0.034-0.032-3.148-3.101-5.568-2.493
							c1.975,2.353,8.712,10.922,8.134,17.76c-0.173,2.121-1.046,3.896-2.583,5.266c0.399,0.836,1.115,2.777,0.81,5.511
							c-0.335,3.005,1.941,4.017,1.963,4.027l1.243,0.53l-1.243,0.533c-0.052,0.017-1.311,0.541-2.513-0.07
							c-0.867-0.444-1.45-1.334-1.745-2.651c-0.196-0.89-0.577-1.497-1.132-1.804c-0.33-0.18-0.688-0.234-1.005-0.234
							c1.589,2.193,0.988,5.342,0.959,5.492l-0.168,0.839l-0.717-0.47c-0.098-0.063-10.018-6.463-20.886-6.833
							c-10.647-0.359-22.972,10.099-29.148,20.134c-6.372,10.359-22.458,19.58-31.094,22.967c-3.652,1.428-7.453,2.264-10.81,3.002
							c-4.455,0.979-8.302,1.827-8.88,3.573c-1.23,3.687-7.407,6.036-7.667,6.134l-2.103,0.793l1.463-1.712
							c0.554-0.647,0.791-1.28,0.699-1.893c-0.076-0.511-0.358-1.035-0.647-1.361c-1.294,5.208-6.488,5.175-6.546,5.175h-0.936
							l0.422-0.74c0.017-0.053,0.006-0.271-0.284-0.752c-0.479-0.785-5.459-7.746-32.787-11.438
							c-20.817-2.813-36.682-12.889-45.879-29.165c-3.577-6.332-12.839-9.788-18.274-10.228c-1.918-0.149-2.617,0.162-2.727,0.295
							c-1.595,1.998-8.696,4.529-9.504,4.807l-4.721,1.652l4.224-2.68c0.948-0.606,1.467-1.33,1.589-2.222
							c0.173-1.313-0.59-2.69-1.151-3.5c-0.953,1.731-2.403,2.271-3.53,2.396c-1.375,0.16-2.524-0.254-2.577-0.271l-0.803-0.292
							l0.572-0.643c2.988-3.313,1.179-7.061,0.914-7.557c-0.855-0.979-12.064-14.287-2.872-28.703
							c-1.728-0.156-5.211-0.752-7.459-2.998L4.752,163.1l1.588,0.143c0.059,0.005,5.24,0.438,7.645-2.029
							c-1.821-0.682-6.043-2.736-6.535-7.15l-0.255-2.246l1.301,1.854c0.155,0.214,3.934,5.264,14.276-0.18
							c2.426-1.275,4.957-2.355,7.4-3.396c8.656-3.687,16.125-6.877,14.831-16.82c-1.565-11.982,0.636-25.98,1.081-28.626
							c-2.051-0.907-11.526-4.519-17.979,2.928l-1.184,1.363l0.168-1.79c0.017-0.186,1.843-17.247,20.666-22.88
							c-2.502-0.127-6.378,0.128-10.602,2.081l-0.301,0.139l-0.272-0.192c-0.387-0.265-9.486-6.909-6.02-38.09
							c3.391-30.517,5.69-33.603,5.939-33.856l0.191-0.185l0.265,0.017c0.127,0.012,12.693,1.104,27.282,8.002
							c13.421,6.343,31.355,19.042,40.703,43.516c1.537,0.375,9.44,1.918,15.91-4.553c7.367-7.362,13.705-18.817,13.77-18.934
							l0.652-1.178l0.404,1.282c0.151,0.474,3.311,10.596,0.544,16.975c3.352-1.896,10.139-5.125,14.213-2.86
							c2.739,1.52,4.478,6.807,4.205,11.734c2.728,0.67,11.25,2.38,15.352-1.265C171.057,65.947,171.825,63.868,172.888,60.991z
							 M222.147,14.915c-37.369,17.274-44.395,36.26-48.178,46.48c-1.122,3.033-1.931,5.223-3.219,6.367
							c-4.478,3.981-13.156,2.316-16.218,1.565c-0.092,0.751-0.231,1.485-0.428,2.185c-0.844,3.009-3.362,7.961-10.815,7.961
							c-0.226,0-0.445-0.006-0.676-0.012l-2.363-0.092l2.138-1.006c0.058-0.028,5.368-2.57,6.292-6.037
							c0.307-1.149,0.092-2.253-0.642-3.375l-6.199-2.478l0.283-0.561c0.023-0.051,0.635-1.242,1.982-1.339
							c1.432-0.11,3.044,1.097,4.784,3.582c1.005,1.438,1.312,2.94,0.907,4.467c-0.659,2.466-3.05,4.43-4.841,5.603
							c5.125-0.612,7.205-4.05,8.036-7.025c1.543-5.505-0.462-12.289-3.125-13.768c-4.836-2.687-14.894,3.958-14.998,4.021
							l-3.091,2.063l2.322-2.901c3.529-4.414,1.705-13.299,0.843-16.644c-1.854,3.178-7.216,11.93-13.271,17.991
							c-7.674,7.667-17.24,4.795-17.339,4.762l-0.266-0.081l-0.104-0.267C94.787,42.104,77.05,29.522,63.778,23.242
							c-13.057-6.188-24.468-7.649-26.571-7.875c-0.491,1.023-2.583,6.679-5.506,32.96C28.646,75.833,35.607,83.841,37,85.142
							c7.465-3.317,13.663-1.688,13.923-1.613l2.283,0.618l-2.312,0.503c-16.771,3.622-21.227,16.102-22.324,20.793
							c7.685-6.894,18.304-1.71,18.418-1.653l0.387,0.191l-0.08,0.428c-0.029,0.155-2.848,15.667-1.15,28.708
							c1.41,10.818-6.812,14.322-15.524,18.031c-2.421,1.035-4.928,2.104-7.309,3.351c-7.66,4.035-12.097,2.635-14.218,1.237
							c1.56,3.381,5.956,4.617,6.008,4.633l0.774,0.209l-0.444,0.665c-1.698,2.554-5.28,3.097-7.441,3.177
							c2.727,1.684,6.343,1.706,6.384,1.706h1.104l-0.63,0.905c-10.007,14.457,1.757,27.617,2.265,28.166l0.075,0.109
							c0.028,0.047,2.362,4.284-0.445,8.217c1.172,0.16,3.27,0.05,4.212-2.543l0.329-0.896l0.642,0.7
							c0.098,0.104,2.339,2.588,1.999,5.151c-0.051,0.404-0.167,0.791-0.34,1.154c2.53-1.006,5.84-2.501,6.707-3.583
							c0.411-0.512,1.301-0.769,2.647-0.769c0.33,0,0.688,0.018,1.076,0.047c5.689,0.457,15.402,4.111,19.186,10.813
							c9.146,16.174,24.295,25.799,45.025,28.604c21.688,2.928,31.735,8.423,33.752,12.233c0.161,0.309,0.254,0.565,0.294,0.799
							c1.34-0.196,4.426-1.094,4.98-5.223l0.115-0.893l0.764,0.479c0.063,0.041,1.617,1.028,1.865,2.658
							c0.064,0.409,0.041,0.821-0.069,1.229c1.826-0.895,4.727-2.604,5.437-4.734c0.786-2.368,4.541-3.193,9.729-4.338
							c3.316-0.729,7.071-1.557,10.636-2.954c8.499-3.322,24.306-12.37,30.535-22.483c6.505-10.574,18.978-21.07,30.164-20.69
							c9.539,0.33,18.101,4.991,20.695,6.54c0.069-1.152-0.041-3.199-1.438-4.361l-0.762-0.643l0.93-0.346
							c0.063-0.023,1.56-0.57,2.9,0.154c0.867,0.469,1.444,1.335,1.716,2.57c0.213,0.959,0.594,1.583,1.138,1.865
							c0.047,0.021,0.092,0.045,0.139,0.063c-0.797-0.875-1.474-2.255-1.259-4.178c0.357-3.201-0.861-5.194-0.877-5.22l-0.273-0.433
							l0.404-0.325c1.507-1.207,2.358-2.813,2.52-4.771c0.618-7.34-8.28-17.403-8.373-17.5l-0.461-0.526l0.601-0.356
							c2.259-1.355,4.998,0.266,6.505,1.427c-1.201-5.58-9.619-6.123-9.711-6.128l-1.947-0.11l1.692-0.972
							c2.941-1.682,4.281-6.09,4.732-7.967c-14.282,3.031-22.215-11.912-22.29-12.068c-0.185-0.371-0.405-0.712-0.652-1.104
							c-1.255-1.953-2.97-4.629-3.455-15.307c-0.579-12.716,6.343-26.726,6.418-26.865l0.236-0.479l0.498,0.208
							c4.76,1.982,11,1.722,14.253,1.399c-2.045-1.104-5.067-3.542-6.928-8.759c-2.75-7.701-11.076-10.018-11.162-10.035
							l-2.057-0.555c0.082-0.117,0.168-0.226,0.249-0.342l10.77-1.345C242.109,48.996,224.544,18.797,222.147,14.915z"/>
					</g>
				</g>
			</g>
		</g>
	</g>
	<g id="g527" display="inline">
	</g>
	<g id="g533" display="inline" opacity="0.2">
		<g id="g531">
			<path id="path529" fill="#754569" d="M58.862,49.418c3.466,0,6.355-0.578,9.822-1.156c-6.45-8.724-14.89-14.46-24.506-17.044
				c-0.854,4.702-1.656,11.044-1.539,17.934c0.219,12.936,3.807,30.506,19.62,40.899c1.035-1.355,6.85-8.783,14.945-15.674
				C75.212,63.601,69.1,54.072,58.862,49.418z"/>
		</g>
	</g>
	<g id="g539" display="inline" opacity="0.4">
		<g id="g537">
			<path id="path535" d="M85.64,56.818c0.87,0.248,1.881,0.647,3.035,1.289c-0.398-1.831-1.947-7.539-6.743-13.9
				C77.712,38.611,70.219,31.6,57.359,26.72C68.717,34.328,78.184,45.273,85.64,56.818z"/>
		</g>
	</g>
	<g id="g545" display="inline" opacity="0.4">
		<g id="g543">
			<path id="path541" d="M81.833,70.714c0.251-0.185,0.503-0.373,0.758-0.554c-0.233-1.038-1.538-6.239-4.413-7.486
				c-0.272,0.02-0.546,0.032-0.827,0.032C79.829,64.771,80.831,67.722,81.833,70.714z"/>
		</g>
	</g>
	<g id="g551" display="inline" opacity="0.2">
		<g id="g549">
			<path id="path547" d="M81.366,56.855l0.388-0.168c0.023-0.012,0.548-0.231,1.524-0.231c0.597,0,1.392,0.087,2.362,0.362
				c-7.456-11.544-16.922-22.49-28.281-30.098c-3.406-1.292-7.186-2.437-11.386-3.365c-0.244,0.843-1.04,3.714-1.794,7.863
				c9.616,2.583,18.056,8.32,24.506,17.044c-3.467,0.578-6.355,1.156-9.822,1.156c10.238,4.653,16.35,14.182,18.342,24.958
				c1.471-1.254,3.021-2.485,4.628-3.663c-1.002-2.992-2.004-5.943-4.482-8.008c0.281,0,0.555-0.013,0.827-0.032
				c-0.263-0.113-0.538-0.198-0.827-0.239l-0.572-0.087l0.411-0.404c0.08-0.081,2.016-1.964,5.418-1.964
				c0.224,0,0.448,0.009,0.673,0.025c-1.079-0.923-2.346-1.603-3.619-1.92c0.954,0,2.007,0.004,3.077,0.085
				c-0.401-0.365-0.777-0.715-1.078-1.017L81.366,56.855z"/>
		</g>
	</g>
	<g id="g557" display="inline" opacity="0.4">
		<g id="g555">
			<path id="path553" d="M83.281,60.005c0.641,0.046,1.291,0.159,1.945,0.339c-0.729-0.621-1.669-1.43-2.487-2.174
				c-1.069-0.081-2.123-0.085-3.077-0.085C80.935,58.403,82.202,59.082,83.281,60.005z"/>
		</g>
	</g>
	<g id="g563" display="inline" opacity="0.4">
		<g id="g561">
			<path id="path559" d="M197.425,66.832c-3.293,1.149-3.623,7.429-3.65,8.591c0.649,0.295,1.275,0.602,1.888,0.916
				c0.132-3.339,0.925-6.479,2.023-9.598L197.425,66.832z"/>
		</g>
	</g>
	<g id="g569" display="inline" opacity="0.4">
		<g id="g567">
			<path id="path565" d="M208.791,28.815c-10.781,7.049-16.431,14.959-19.367,21.013c-3.484,7.165-3.9,13.07-3.941,14.941
				c0.522-0.44,1.02-0.809,1.492-1.122C190.282,49.424,198.149,37.715,208.791,28.815z"/>
		</g>
	</g>
	<g id="g575" display="inline" opacity="0.2">
		<g id="g573">
			<path id="path571" d="M208.791,28.815c-10.642,8.9-18.509,20.609-21.816,34.832c2.196-1.454,3.822-1.645,4.517-1.645
				c0.312,0,0.491,0.035,0.508,0.035l0.416,0.093l-0.069,0.102c0.155-0.065,0.336-0.102,0.554-0.102
				c-0.199,0.05-0.399,0.11-0.598,0.168l-0.124,0.184c-0.243,0.361-0.553,0.791-0.888,1.241c-0.185,0.395-0.412,0.779-0.799,1.051
				c-0.049,0.063-0.097,0.126-0.146,0.188c2.734-0.43,4.979,0.633,7.754,0.633c-0.113,0.303-0.224,0.606-0.332,0.91l0.205,0.137
				l-0.289,0.1c-1.099,3.119-1.892,6.258-2.023,9.598c0.866,0.443,1.701,0.901,2.497,1.372c1.297-6.898,5.449-13.182,12.653-15.582
				c-2.89,0-5.201,0-8.09,0c1.512-14.108,8.299-27.776,20.357-34.874c-1.123-2.542-2.048-4.238-2.377-4.819
				C216.16,24.417,212.218,26.573,208.791,28.815z"/>
		</g>
	</g>
	<g id="g581" display="inline" opacity="0.4">
		<g id="g579">
			<path id="path577" d="M190.347,64.962c-0.371,0.477-0.735,0.937-1.051,1.333c1.375-0.682,2.78-1.023,4.189-1.023
				c2.409,0,3.939,1.006,4.003,1.046l0.28,0.187c0.108-0.304,0.219-0.606,0.332-0.91C195.325,65.595,193.081,64.532,190.347,64.962z
				"/>
		</g>
	</g>
	<g id="g587" display="inline" opacity="0.4">
		<g id="g585">
			<path id="path583" d="M191.291,63.723c-0.256,0.344-0.526,0.699-0.799,1.051C190.879,64.502,191.106,64.117,191.291,63.723z"/>
		</g>
	</g>
	<g id="g593" display="inline" opacity="0.4">
		<g id="g591">
			<path id="path589" d="M192.901,62.129c-0.218,0-0.399,0.037-0.554,0.102l-0.044,0.067
				C192.502,62.239,192.702,62.179,192.901,62.129z"/>
		</g>
	</g>
	<g id="g599" display="inline" opacity="0.2">
		<g id="g597">
			<path id="path595" fill="#754569" d="M223.08,27.255c-12.058,7.098-18.845,20.766-20.357,34.874c2.889,0,5.2,0,8.09,0
				c-7.204,2.4-11.356,8.684-12.653,15.582c8.862,5.246,13.332,11.93,14.259,13.433c2.796-2.525,5.154-5.137,7.141-7.794
				l-0.19-0.052l0.255-0.029c9.648-12.982,10.348-27.021,8.885-37.3C227.404,38.178,224.965,31.523,223.08,27.255z"/>
		</g>
	</g>
	<g id="g671" display="inline" opacity="0.2">
		<g id="g669">
			<path id="path667" d="M125.882,66.173c2.633-0.957,4.869-2.414,6.996-4.035l1.22-1.524c3.529-4.414,1.705-13.299,0.843-16.646
				c-0.078,0.134-0.171,0.291-0.262,0.444C135.337,52.401,130.394,60.156,125.882,66.173z"/>
		</g>
	</g>
	<g id="g677" display="inline" opacity="0.2">
		<g id="g675">
			<path id="path673" d="M142.123,65.913c0.023-0.051,0.635-1.242,1.982-1.339c1.432-0.11,3.044,1.097,4.784,3.582
				c1.005,1.439,1.312,2.94,0.907,4.467c-0.615,2.3-2.736,4.164-4.472,5.354c5.149-2.477,8.295-9.388,5.402-14.692
				c-3.467-5.777-10.4-1.733-13.289,2.889c1.675,0,3.047,0,4.554,0L142.123,65.913z"/>
		</g>
	</g>
	<g id="g683" display="inline" opacity="0.2">
		<g id="g681">
			<path id="path679" d="M146.742,75.333c0.886-0.871,1.64-1.89,1.938-3.006c0.307-1.149,0.092-2.253-0.642-3.375l-2.782-1.112
				C147.083,69.902,147.828,72.82,146.742,75.333z"/>
		</g>
	</g>
	<g id="g689" display="inline" opacity="0.2">
		<g id="g687">
			<path id="path685" d="M139.748,81.772c8.089,1.155,15.022-4.044,17.911-10.977c0.295-0.295,0.668-0.516,1.076-0.698
				c-1.748-0.212-3.248-0.535-4.202-0.77c-0.092,0.751-0.231,1.485-0.428,2.185c-0.844,3.009-3.362,7.961-10.815,7.961
				c-0.056,0-0.11-0.002-0.165-0.002C142.18,80.573,141.414,81.772,139.748,81.772z"/>
		</g>
	</g>
	<g id="g731" display="inline" opacity="0.2">
		<g id="g729">
			<path id="path727" d="M221.79,91.016c-4.623,9.822-6.356,19.644-11.555,28.888c1.733,0,2.889,0,4.622,0
				c0,1.734-1.155,1.156-2.312,1.156c2.39,6.827,4.376,14.66,8.581,20.644c-0.958-2.134-1.889-5.689-2.225-13.104
				c-0.579-12.716,6.343-26.726,6.418-26.865l0.236-0.479l0.498,0.208c2.184,0.91,4.677,1.343,7.054,1.52
				C228.395,100.082,224.774,95.708,221.79,91.016z"/>
		</g>
	</g>
	<g id="g737" display="inline" opacity="0.2">
		<g id="g735">
			<path id="path733" d="M51.352,140.127c7.511-10.401-3.467-30.044,10.977-38.133c-4.044-0.578-6.933,1.156-10.399,2.889
				c1.732-3.466,2.889-6.933,4.621-10.399c-3.518,3.2-7.215,6.397-11.285,8.615c1.057,0.367,1.697,0.678,1.724,0.692l0.387,0.191
				l-0.08,0.428c-0.029,0.155-2.848,15.667-1.15,28.708c1.41,10.817-6.812,14.323-15.524,18.03
				c-2.421,1.035-4.928,2.104-7.309,3.352c-7.66,4.035-12.097,2.635-14.218,1.238c0.6,1.298,1.618,2.277,2.647,2.994
				c0.298-0.021,0.599-0.061,0.901-0.119C26.508,153.415,42.686,151.682,51.352,140.127z"/>
		</g>
	</g>
	<g id="g743" display="inline" opacity="0.4">
		<g id="g741">
			<path id="path739" fill="#FFFFFF" d="M174.991,66.751c1.155,1.155,2.312,2.311,3.467,3.466
				c-0.579-9.822,3.466-19.066,8.667-27.154c8.79-13.584,22.829-19.434,36.195-26.144c-0.518-0.927-0.926-1.606-1.172-2.005
				c-37.369,17.274-44.395,36.26-48.178,46.48c-1.038,2.807-1.813,4.88-2.942,6.082c1.382,2.492,3.158,4.824,5.119,6.785
				C176.146,71.951,174.991,69.062,174.991,66.751z"/>
		</g>
	</g>
	<g id="g749" display="inline" opacity="0.2">
		<g id="g747">
			<path id="path745" fill="#FFFFFF" d="M225.256,88.706c2.282,4.335,5.826,9.931,10.062,14.37c1.945,0.028,3.702-0.087,4.988-0.214
				c-2.045-1.104-5.067-3.542-6.928-8.759c-2.41-6.748-9.1-9.362-10.776-9.917c-0.9,0.146-1.757,0.463-2.547,1.055
				C222.367,85.239,224.101,86.973,225.256,88.706z"/>
		</g>
	</g>
	<g id="g755" display="inline" opacity="0.2">
		<g id="g753">
			<path id="path751" fill="#FFFFFF" d="M53.662,85.817c-2.145-0.536-4.347-0.519-6.535-0.137
				c-13.684,4.535-17.547,15.445-18.556,19.763c2.191-1.966,4.619-2.949,6.976-3.35C39.473,94.797,45.468,88.821,53.662,85.817z"/>
		</g>
	</g>
	<g id="g761" display="inline" opacity="0.2">
		<g id="g759">
			<path id="path757" fill="#FFFFFF" d="M106.238,86.394c-11.401-12.956-33.49-6.387-42.091,6.778
				C76.931,86.972,91.773,85.928,106.238,86.394z"/>
		</g>
	</g>
	<g id="g767" display="inline" opacity="0.2">
		<g id="g765">
			<path id="path763" fill="#F49758" d="M252.26,189.213c0.618-7.34-8.28-17.402-8.373-17.5l-0.461-0.527l0.601-0.354
				c2.259-1.354,4.998,0.265,6.505,1.426c-1.201-5.58-9.619-6.123-9.711-6.128l-1.947-0.109l1.692-0.973
				c2.941-1.681,4.281-6.09,4.732-7.967c-14.282,3.031-22.215-11.912-22.29-12.068c-0.185-0.369-0.405-0.712-0.652-1.104
				c-0.384-0.6-0.81-1.266-1.23-2.202c-4.205-5.984-6.191-13.816-8.581-20.644c1.156,0,2.312,0.578,2.312-1.156
				c-1.733,0-2.889,0-4.622,0c5.199-9.244,6.933-19.065,11.555-28.888c2.985,4.692,6.605,9.065,11.317,11.965
				c0.754,0.055,1.494,0.083,2.211,0.094c-4.236-4.438-7.78-10.035-10.062-14.37c-1.155-1.733-2.889-3.467-5.201-3.467
				c0.79-0.591,1.646-0.909,2.547-1.055c-0.236-0.079-0.375-0.115-0.385-0.117l-2.057-0.555c-2.097,2.831-4.61,5.61-7.615,8.296
				l-0.271,0.242l-0.174-0.317c-0.057-0.099-5.846-10-18.887-15.859l-0.312-0.074v-0.192c0-0.307,0.185-7.192,3.628-9.07
				c-0.606-0.283-1.658-0.688-3.114-0.688c-1.768,0-3.49,0.579-5.205,1.722l-1.607,1.081l1.248-1.508
				c0.029-0.029,2.312-2.802,3.553-4.564c-0.878,0.017-3.074,0.376-6.014,3.04l-0.45,0.411l-0.029-0.613
				c-0.006-0.07-0.294-7.014,3.975-15.813c3.929-8.101,12.641-19.505,31.824-27.796l0.236-0.103l0.127,0.219
				c0.064,0.104,6.072,10.319,8.008,23.965c1.461,10.284,0.786,24.283-8.673,37.282l10.77-1.345
				c9.809-29.46-3.326-56.798-7.858-64.905c-13.366,6.71-27.405,12.559-36.195,26.144c-5.201,8.088-9.245,17.333-8.667,27.154
				c-1.155-1.155-2.312-2.311-3.467-3.466c0,2.311,1.155,5.2,1.155,7.51c-1.961-1.961-3.737-4.293-5.119-6.785
				c-0.092,0.097-0.18,0.201-0.276,0.286c-3.083,2.74-8.155,2.806-12.016,2.335c-0.381,0.171-0.725,0.379-1.01,0.647
				c1.268,1.928,2.703,3.769,4.557,5.25c-1.854-1.482-3.289-3.322-4.557-5.25c-0.021,0.019-0.047,0.032-0.066,0.051
				c-2.889,6.933-9.822,12.132-17.911,10.977c1.667,0,2.432-1.2,3.377-2.302c-0.169-0.003-0.336-0.005-0.511-0.01l-2.363-0.092
				l2.138-1.006c0.04-0.02,2.489-1.196,4.354-3.031c1.086-2.513,0.341-5.431-1.485-7.493l-3.417-1.366l0.151-0.301
				c-1.507,0-2.879,0-4.554,0c2.889-4.622,9.822-8.666,13.289-2.889c2.893,5.304-0.253,12.215-5.402,14.692
				c-0.125,0.087-0.249,0.17-0.37,0.249c5.125-0.612,7.205-4.05,8.036-7.025c0.708-2.526,0.663-5.318,0.156-7.747
				c-1.04-1.438-2.182-2.706-3.575-3.635c-6.356-4.044-13.866,2.312-20.222,6.355c0.396-0.891,0.848-1.71,1.34-2.474
				c-1.484,0.979-3.056,1.838-4.806,2.474c3.1-4.132,6.401-9.084,7.952-14.37c-4.643,7.76-13.264,17.753-22.5,15.306
				c-3.96,0.528-6.947-0.367-7.002-0.386l-0.266-0.081l-0.009-0.023c-2.496,1.89-5.106,3.736-7.063,5.91
				c0.577-4.623-1.155-8.667-1.733-12.711c0,2.312-1.156,3.467-1.156,5.777c-0.578-15.021-9.822-26.576-21.954-34.665
				c-10.63-7.394-23.107-13.671-35.954-12.342c-0.983,3.95-2.556,12.302-4.495,29.737C28.646,75.833,35.607,83.841,37,85.142
				c7.465-3.317,13.663-1.688,13.923-1.613l2.283,0.618l-2.312,0.503c-1.335,0.288-2.583,0.638-3.768,1.03
				c2.188-0.382,4.39-0.399,6.535,0.137c-8.193,3.004-14.189,8.98-18.115,16.277c3.918-0.666,7.635,0.28,9.718,1.004
				c4.07-2.218,7.767-5.416,11.285-8.615c-1.732,3.466-2.889,6.933-4.621,10.399c3.466-1.733,6.354-3.466,10.399-2.889
				c-14.444,8.089-3.466,27.732-10.977,38.133c-8.666,11.556-24.844,13.288-38.709,18.485c-0.302,0.062-0.603,0.099-0.901,0.119
				c1.65,1.151,3.33,1.627,3.361,1.638l0.774,0.209l-0.444,0.665c-1.698,2.554-5.28,3.097-7.441,3.177
				c2.727,1.683,6.343,1.706,6.384,1.706h1.104l-0.63,0.904c-7.058,10.197-3.287,19.742-0.272,24.678
				c6.646-8.748,19.655-11.457,30.418-15.764c1.734-0.574,3.468-3.463,4.623-5.776c0,4.045-1.155,8.666-4.044,11.556
				c1.733-1.73,3.467-2.89,4.622-4.621c-1.733,4.045-4.622,6.937-6.933,10.979c4.044-0.579,8.088-2.313,12.71-1.154
				c-6.355,15.021,10.977,26.574,21.377,35.82c17.167,16.61,40.172,12.524,62.402,16.229c9.457-1.521,18.567-4.613,27.15-9.295
				c14.35-8.134,23.553-21.41,33.508-33.938c1.527-3.412,2.875-6.931,4.046-10.55c0-0.579-2.31-2.313-3.467-3.469
				c3.467-1.151,5.778,2.89,9.245,1.734c-1.734-1.156-2.889-2.891-4.044-4.624c2.311,1.733,4.623,3.468,6.933,5.202
				c-3.467-5.202-5.777-10.4-8.088-16.18c3.465,3.468,6.354,8.088,10.398,10.978c6.934,4.045,15.022,2.313,20.799,6.354
				c5.632,3.379,10.284,7.738,14.281,12.752c-0.171-1.998-0.892-3.184-0.904-3.2l-0.273-0.433l0.404-0.326
				C251.248,192.775,252.099,191.171,252.26,189.213z M165.437,82.049c5.716-2.43,11.967-3.386,18.22-1.432
				c9.244,3.467,18.489,11.555,18.489,21.955C193.842,91.039,179.646,84.3,165.437,82.049c-2.735,1.164-5.348,2.664-7.779,4.345
				C160.089,84.712,162.702,83.213,165.437,82.049c-3.586-0.568-7.174-0.854-10.667-0.854
				C158.263,81.195,161.851,81.48,165.437,82.049z M42.061,49.147c-0.237-14.207,3.396-26.098,3.433-26.219l0.081-0.248l0.26,0.052
				C66.252,27.18,76.998,36.69,82.417,43.883c5.882,7.817,6.933,14.687,6.944,14.751l0.087,0.606l-0.52-0.318
				c-3.397-2.04-5.599-1.975-6.495-1.819c1.561,1.49,4.333,3.772,4.362,3.795l1.508,1.243l-1.802-0.751
				c-1.33-0.549-2.635-0.833-3.895-0.833c-2.264,0-3.853,0.918-4.575,1.438c3.738,1.184,5.107,7.932,5.165,8.239l0.034,0.179
				l-0.15,0.109c-11.717,8.291-20.435,19.974-20.521,20.089l-0.162,0.215l-0.226-0.146C45.949,80.167,42.281,62.29,42.061,49.147z
				 M61.751,97.949c0.596-1.666,1.409-3.264,2.396-4.777c-3.044,1.477-5.973,3.243-8.751,5.355c2.778-2.113,5.707-3.878,8.751-5.355
				c8.601-13.166,30.69-19.734,42.091-6.778c-14.465-0.466-29.307,0.578-42.091,6.778C63.16,94.686,62.347,96.283,61.751,97.949z
				 M171.413,164.766c10.586,8.734,16.447,23.571,7.045,35.446c-7.845,10.786-19.433,17.412-31.588,21.994
				c-0.315,0.247-0.67,0.504-1.044,0.804c-0.612,0.491-1.369,0.948-2.184,1.469c-0.423,0.23-0.861,0.479-1.318,0.729
				c-0.457,0.263-0.958,0.451-1.461,0.688c-0.503,0.248-1.041,0.43-1.589,0.635c-0.543,0.222-1.12,0.369-1.704,0.533
				c-1.174,0.328-2.41,0.568-3.68,0.715c-0.636,0.082-1.277,0.099-1.924,0.148c-0.647-0.006-1.294,0.028-1.948-0.006
				c-0.647-0.041-1.293-0.068-1.936-0.152c-0.641-0.063-1.276-0.177-1.901-0.285c-1.259-0.219-2.472-0.543-3.622-0.91
				c-1.162-0.344-2.241-0.799-3.258-1.23c-1.005-0.449-1.942-0.914-2.779-1.395c-0.844-0.455-1.589-0.932-2.236-1.367
				c-0.469-0.313-0.887-0.609-1.252-0.879c-1.306-0.428-2.647-0.887-3.937-1.543c-1.044,2.16-2.629,4.674-8.168,6.332
				c-1.577,0.475-2.946,0.662-4.13,0.662c-3.542,0-5.426-1.75-6.322-3.014c-2.194-3.115-1.97-8.199,0.509-11.58
				c0.409-0.558,0.848-1.039,1.305-1.459c-5.468-1.633-10.506-4.473-14.362-9.154c-4.623-5.776-5.2-13.864-1.156-20.223
				c4.339-7.496,10.298-13.373,17.136-18.188c-0.417,0.019-0.833,0.038-1.254,0.038c-13.78,0-25.588-8.915-30.366-21.479
				c-1.468-3.85-2.271-8.038-2.271-12.417c0-18.69,14.64-33.896,32.637-33.896c17.998,0,32.644,15.207,32.644,33.896
				c0,4.657-0.907,9.096-2.553,13.135c-1.297,3.188-3.053,6.129-5.177,8.732c8.577-1.381,17.233-1.271,25.277,1.082
				c-5.003-5.883-8.019-13.443-8.019-21.69c0-18.689,15.49-33.897,34.526-33.897c19.037,0,34.527,15.208,34.527,33.897
				C203.879,148.943,189.494,163.714,171.413,164.766z"/>
		</g>
	</g>
	<g id="g773" display="inline" opacity="0.2">
		<g id="g771">
			<path id="path769" fill="#FFFFFF" d="M202.146,102.571c0-10.399-9.245-18.487-18.489-21.955
				c-6.253-1.954-12.504-0.998-18.22,1.432C179.646,84.3,193.842,91.039,202.146,102.571z"/>
		</g>
	</g>
	<g id="g779" display="inline" opacity="0.4">
		<g id="g777">
			<path id="path775" fill="#FFFFFF" d="M149.57,59.817c1.393,0.93,2.536,2.197,3.575,3.635c-0.598-2.863-1.84-5.221-3.281-6.021
				c-4.836-2.687-14.894,3.958-14.998,4.021l-3.091,2.063l1.102-1.377c-0.714,0.544-1.442,1.066-2.189,1.561
				c-0.492,0.764-0.944,1.583-1.34,2.474C135.704,62.129,143.214,55.773,149.57,59.817z"/>
		</g>
	</g>
	<g id="g785" display="inline" opacity="0.4">
		<g id="g783">
			<path id="path781" fill="#FFFFFF" d="M134.679,44.414c-2.054,3.479-7.209,11.742-13.009,17.547
				c-3.404,3.401-7.179,4.727-10.336,5.147c9.236,2.448,17.857-7.545,22.5-15.306C134.542,49.393,134.885,46.915,134.679,44.414z"/>
		</g>
	</g>
	<g id="g791" display="inline" opacity="0.4">
		<g id="g789">
			<path id="path787" fill="#FFFFFF" d="M72.151,30.93c12.132,8.089,21.376,19.645,21.954,34.665c0-2.311,1.156-3.466,1.156-5.777
				c0.578,4.045,2.31,8.089,1.733,12.711c1.957-2.174,4.567-4.021,7.063-5.91l-0.095-0.244
				c-9.174-24.272-26.911-36.854-40.183-43.134c-13.057-6.188-24.468-7.649-26.571-7.875c-0.166,0.345-0.513,1.219-1.011,3.223
				C49.044,17.258,61.521,23.536,72.151,30.93z"/>
		</g>
	</g>
	<g id="g947" display="inline">
		<g id="g945">
			<path id="path943" d="M212.276,92.049l-0.177-0.314c-0.055-0.1-5.794-10.003-18.834-15.861L193,75.796v-0.187
				c0-0.307,0.137-7.195,3.58-9.074c-0.606-0.282-1.683-0.687-3.141-0.687c-1.764,0-3.503,0.58-5.216,1.721l-1.613,1.082
				l1.249-1.507c0.025-0.03,2.309-2.802,3.551-4.567c-0.882,0.02-3.079,0.38-6.018,3.04l-0.451,0.409l-0.031-0.609
				c-0.004-0.07-0.291-7.013,3.977-15.812c3.931-8.105,12.644-19.507,31.827-27.8l0.232-0.1l0.13,0.218
				c0.06,0.102,6.071,10.319,8.006,23.964c1.789,12.611,0.372,30.815-16.536,45.923L212.276,92.049z M193.771,75.425
				c11.798,5.359,17.576,13.985,18.648,15.72c16.473-14.891,17.849-32.769,16.088-45.177c-1.763-12.431-6.929-21.979-7.804-23.529
				c-18.837,8.205-27.407,19.413-31.283,27.386c-3.482,7.167-3.898,13.07-3.937,14.943c2.944-2.488,5.162-2.769,6.007-2.769
				c0.313,0,0.489,0.036,0.507,0.04l0.416,0.089l-0.235,0.353c-0.715,1.072-1.991,2.699-2.882,3.812
				c1.376-0.679,2.78-1.023,4.19-1.023c2.405,0,3.94,1.005,4.004,1.047l0.482,0.322l-0.548,0.192
				C194.133,67.983,193.804,74.261,193.771,75.425z"/>
		</g>
	</g>
	<g id="g953" display="inline">
		<g id="g951">
			<path id="path949" d="M62.399,90.829l-0.228-0.148c-16.223-10.515-19.89-28.39-20.11-41.532
				c-0.237-14.209,3.397-26.101,3.434-26.218l0.079-0.253l0.259,0.056c20.42,4.444,31.164,13.955,36.583,21.151
				c5.882,7.813,6.936,14.683,6.946,14.75l0.088,0.604l-0.522-0.315c-3.396-2.043-5.596-1.978-6.493-1.822
				c1.559,1.491,4.331,3.772,4.36,3.797l1.509,1.24l-1.802-0.75c-1.326-0.551-2.636-0.831-3.894-0.831
				c-2.266,0-3.854,0.916-4.575,1.439c3.74,1.181,5.105,7.933,5.165,8.233l0.035,0.184l-0.152,0.108
				c-11.713,8.292-20.434,19.971-20.52,20.088L62.399,90.829z M45.972,23.355c-0.521,1.795-3.552,12.824-3.333,25.799
				c0.219,12.936,3.807,30.503,19.622,40.895c1.252-1.639,9.502-12.176,20.331-19.887c-0.256-1.135-1.787-7.232-5.24-7.729
				l-0.574-0.083l0.412-0.408c0.08-0.081,2.016-1.961,5.418-1.961c0.856,0,1.732,0.121,2.618,0.361
				c-1.089-0.92-2.656-2.273-3.563-3.188l-0.3-0.301l0.392-0.167c0.021-0.011,0.546-0.23,1.524-0.23c1.132,0,2.96,0.296,5.393,1.652
				c-0.397-1.831-1.942-7.543-6.74-13.905C76.595,37.128,66.028,27.781,45.972,23.355z"/>
		</g>
	</g>
	<g id="g989" display="inline">
		<g id="g987">
			<path id="path985" d="M131.659,257h-0.935l0.418-1.113c0.018-0.051,0.01-0.457-0.282-0.936
				c-0.478-0.784-5.456-7.844-32.788-11.537c-20.814-2.813-36.677-12.936-45.876-29.21c-3.578-6.331-12.841-9.81-18.274-10.244
				c-1.921-0.155-2.62,0.147-2.727,0.281c-1.599,1.997-8.7,4.52-9.503,4.8l-4.721,1.65l4.219-2.686
				c0.953-0.605,1.473-1.335,1.591-2.224c0.173-1.321-0.587-2.693-1.148-3.503c-1.566,2.843-4.6,2.682-6.108,2.134l-0.804-0.295
				l0.573-0.638c2.966-3.299,1.157-7.094,0.916-7.563c-0.869-0.992-12.063-14.292-2.874-28.697c-1.729-0.158-5.208-0.754-7.458-3
				l-1.125-1.129l1.586,0.145c0.056,0.005,5.237,0.437,7.644-2.029c-1.821-0.688-6.046-2.737-6.537-7.15l-0.25-2.248l1.298,1.854
				c0.153,0.216,3.935,5.263,14.279-0.182c2.423-1.272,4.952-2.354,7.398-3.396c8.654-3.688,16.127-6.874,14.83-16.819
				c-1.563-11.981,0.634-25.98,1.083-28.625c-2.054-0.91-11.526-4.521-17.983,2.93l-1.181,1.361l0.168-1.794
				c0.017-0.179,1.839-17.244,20.662-22.876c-2.499-0.125-6.375,0.128-10.6,2.079l-0.299,0.138l-0.271-0.187
				c-0.39-0.268-9.49-6.91-6.024-38.094c3.39-30.521,5.691-33.604,5.942-33.854l0.189-0.19l0.266,0.022
				c0.125,0.01,12.695,1.099,27.283,7.998c13.421,6.348,31.353,19.044,40.703,43.517c1.532,0.377,9.439,1.921,15.911-4.549
				c7.365-7.365,13.705-18.821,13.77-18.936l0.648-1.18l0.407,1.283c0.152,0.476,3.312,10.598,0.541,16.977
				c3.355-1.898,10.144-5.123,14.212-2.862c2.742,1.523,4.479,6.808,4.209,11.733c2.728,0.672,11.247,2.384,15.347-1.261
				c1.069-0.95,1.838-3.028,2.902-5.904c3.854-10.418,11.027-29.81,49.239-47.342l0.45-0.207l0.273,0.414
				c0.216,0.325,21.393,33.003,9.31,68.679l-0.117,0.343l-7.261,0.907c2.858,1.276,7.635,4.184,9.686,9.925
				c2.747,7.692,8.181,8.861,8.235,8.873l3.01,0.602l-3.023,0.533c-0.397,0.07-9.608,1.65-16.566-0.988
				c-1.188,2.538-6.572,14.711-6.067,25.815c0.472,10.37,2.09,12.896,3.271,14.737c0.258,0.4,0.501,0.781,0.713,1.208
				c0.075,0.147,7.892,14.899,21.871,11.254l0.861-0.226l-0.146,0.877c-0.043,0.266-0.428,5.858-3.673,8.762
				c2.99,0.509,10.048,2.32,10.048,8.479v1.393l-1.57-0.982c-0.033-0.033-3.442-3.105-5.863-2.496
				c1.977,2.354,8.564,10.924,7.99,17.76c-0.179,2.125-1.118,3.896-2.656,5.271c0.397,0.832,1.075,2.773,0.772,5.509
				c-0.333,3.005,1.923,4.019,1.947,4.026l1.229,0.527l-1.243,0.53c-0.053,0.022-1.313,0.55-2.515-0.067
				c-0.866-0.44-1.456-1.334-1.747-2.646c-0.198-0.896-0.58-1.501-1.133-1.805c-0.33-0.183-0.688-0.235-1.006-0.237
				c1.59,2.197,0.987,5.35,0.958,5.496l-0.167,0.838l-0.715-0.468c-0.099-0.063-10.017-6.466-20.889-6.841
				c-10.658-0.375-22.969,10.104-29.145,20.142c-6.374,10.354-22.457,19.581-31.096,22.962c-3.65,1.428-7.451,2.266-10.806,3.002
				c-4.456,0.981-8.304,1.831-8.885,3.575c-1.229,3.688-7.402,6.037-7.664,6.135l-2.104,0.789l1.463-1.706
				c0.556-0.648,0.792-1.283,0.7-1.896c-0.076-0.508-0.362-0.662-0.651-0.982C136.913,256.66,131.716,257,131.659,257z
				 M32.939,202.742c0.331,0,0.69,0.016,1.076,0.047c5.687,0.457,15.4,4.113,19.188,10.813
				c9.143,16.176,24.291,25.797,45.024,28.601c21.684,2.932,31.733,8.426,33.75,12.237c0.16,0.308,0.251,0.568,0.294,0.802
				c1.338-0.196,4.428-1.097,4.979-5.226l0.118-0.89l0.761,0.474c0.065,0.045,1.618,1.031,1.867,2.662
				c0.063,0.411,0.039,0.824-0.071,1.229c1.829-0.894,4.727-2.604,5.438-4.737c0.789-2.367,4.54-3.191,9.732-4.337
				c3.313-0.729,7.068-1.558,10.634-2.954c8.501-3.324,24.306-12.372,30.533-22.488c6.506-10.572,18.956-21.092,30.169-20.688
				c9.533,0.331,18.098,4.99,20.693,6.541c0.067-1.153-0.042-3.198-1.44-4.362l-0.763-0.638l0.93-0.35
				c0.063-0.022,1.562-0.568,2.901,0.153c0.865,0.47,1.443,1.335,1.718,2.572c0.212,0.957,0.595,1.584,1.136,1.866
				c0.047,0.021,0.094,0.046,0.141,0.063c-0.798-0.877-1.474-2.256-1.26-4.182c0.355-3.199-0.865-5.192-0.877-5.213l-0.273-0.438
				l0.401-0.324c1.509-1.207,2.357-2.811,2.522-4.77c0.616-7.343-8.28-17.404-8.37-17.505l-0.464-0.519l0.598-0.361
				c2.261-1.355,5.001,0.262,6.51,1.424c-1.205-5.577-9.62-6.123-9.711-6.129l-1.948-0.111l1.693-0.967
				c2.941-1.682,4.281-6.094,4.732-7.971c-14.294,3.035-22.218-11.913-22.295-12.07c-0.185-0.369-0.402-0.708-0.652-1.098
				c-1.253-1.955-2.966-4.629-3.452-15.313c-0.578-12.714,6.346-26.721,6.416-26.861l0.241-0.483l0.498,0.208
				c4.759,1.983,10.998,1.724,14.249,1.399c-2.046-1.104-5.063-3.542-6.927-8.76c-2.749-7.697-11.077-10.014-11.16-10.037
				l-2.85-0.765l11.812-1.476c10.926-32.827-6.636-63.025-9.03-66.91c-37.372,17.275-44.397,36.262-48.177,46.479
				c-1.123,3.034-1.934,5.226-3.218,6.367c-4.477,3.98-13.155,2.32-16.218,1.567c-0.092,0.75-0.235,1.484-0.431,2.186
				c-0.868,3.1-3.505,8.252-11.489,7.948l-2.364-0.091l2.139-1.01c0.054-0.024,5.368-2.566,6.29-6.037
				c0.305-1.148,0.095-2.251-0.644-3.369l-6.197-2.478l0.281-0.562c0.025-0.05,0.637-1.245,1.982-1.343
				c1.438-0.104,3.047,1.099,4.785,3.582c1.009,1.441,1.314,2.945,0.908,4.47c-0.656,2.465-3.051,4.432-4.84,5.6
				c5.125-0.609,7.203-4.045,8.035-7.021c1.542-5.51-0.462-12.29-3.124-13.767c-4.836-2.688-14.897,3.953-14.998,4.021l-3.096,2.063
				l2.325-2.906c3.529-4.413,1.705-13.297,0.843-16.641c-1.855,3.177-7.215,11.932-13.272,17.988
				c-7.67,7.669-17.24,4.794-17.336,4.766l-0.269-0.085l-0.1-0.263c-9.176-24.275-26.917-36.858-40.183-43.139
				c-13.061-6.185-24.471-7.648-26.575-7.875c-0.493,1.026-2.582,6.68-5.502,32.962c-3.057,27.509,3.904,35.513,5.298,36.815
				c7.466-3.313,13.66-1.686,13.924-1.615l2.282,0.623l-2.312,0.501c-16.772,3.626-21.229,16.103-22.325,20.796
				c7.681-6.894,18.305-1.712,18.417-1.657l0.388,0.195l-0.079,0.428c-0.029,0.155-2.851,15.665-1.15,28.707
				c1.41,10.819-6.814,14.323-15.523,18.03c-2.425,1.033-4.932,2.104-7.313,3.355c-7.655,4.029-12.093,2.63-14.213,1.23
				c1.559,3.379,5.957,4.616,6.008,4.631l0.773,0.213l-0.444,0.666c-1.7,2.552-5.282,3.028-7.443,3.106
				c2.728,1.688,6.343,1.646,6.385,1.646h1.103l-0.628,0.972c-10.009,14.455,1.757,27.646,2.263,28.196l0.077,0.123
				c0.025,0.045,2.361,4.295-0.443,8.222c1.168,0.164,3.266,0.063,4.211-2.538l0.325-0.893l0.644,0.703
				c0.095,0.104,2.338,2.584,2,5.149c-0.053,0.41-0.167,0.793-0.342,1.155c2.528-1.008,5.842-2.497,6.709-3.582
				C30.702,203.001,31.59,202.742,32.939,202.742z M143.602,65.937l2.994,1.197c-1.189-1.257-1.987-1.441-2.408-1.412
				C143.952,65.74,143.757,65.828,143.602,65.937z"/>
		</g>
	</g>
</g>
<g id="Layer_2" transform="matrix(0.22300532,0,0,0.18430599,9.010015,10.092069)">
	<g id="g1227">
		<g id="XMLID_3_">
			<g id="g1224">
				<g id="g1030">
					<path id="path1028" inkscape:connector-curvature="0" fill="#754569" d="M107.863,40.787
						c8.375,11.114,11.079,21.088,11.775,24.283c-4.259-2.374-7.449-2.888-9.424-2.888c-1.703,0-2.625,0.387-2.667,0.403
						l-0.674,0.297l0.512,0.522c1.596,1.595,4.331,3.953,6.229,5.566c-1.546-0.416-3.081-0.631-4.572-0.631
						c-5.945,0-9.325,3.288-9.468,3.434l-0.718,0.702l0.998,0.151c6.041,0.872,8.712,11.519,9.152,13.493
						c-18.907,13.472-33.323,31.882-35.51,34.746c-27.621-18.15-33.89-48.843-34.271-71.441C38.844,26.77,44.142,7.501,45.051,4.37
						C80.08,12.098,98.535,28.428,107.863,40.787z"/>
				</g>
				<g id="g1034">
					<path id="path1032" inkscape:connector-curvature="0" fill="#754569" d="M288.735,76.704c0.07-3.267,0.795-13.58,6.88-26.09
						c6.766-13.941,21.74-33.506,54.636-47.849c1.535,2.713,10.558,19.387,13.634,41.106c2.557,17.952,1.336,42.473-15.517,65.151
						l-0.447,0.05l0.335,0.093c-3.473,4.642-7.589,9.201-12.474,13.609c-1.868-3.025-11.957-18.094-32.57-27.462
						c0.055-2.024,0.631-12.995,6.378-15l0.961-0.336l-0.845-0.567c-0.112-0.069-2.785-1.825-6.998-1.825
						c-2.459,0-4.913,0.599-7.313,1.788c1.552-1.95,3.781-4.792,5.036-6.66l0.409-0.615l-0.725-0.162
						c-0.033,0-0.344-0.053-0.889-0.053C297.756,71.871,293.881,72.356,288.735,76.704L288.735,76.704z"/>
				</g>
				<g id="g1038">
					<path id="path1036" inkscape:connector-curvature="0" fill="#FF7694" d="M177.567,330.541
						c-0.841,7.996-10.692,8.152-11.143,8.176c-1.826,0.151-3.322,0.432-4.561,0.834c-0.085-0.037-0.12-0.069-0.131-0.069
						l-0.081,0.143c-4.125,1.378-5.373,4.03-6.764,7c-1.865,4.008-3.976,8.541-14.14,11.588c-7.718,2.31-13.805,0.991-17.131-3.725
						c-3.606-5.105-3.225-13.458,0.865-19.046c4.745-6.469,11.859-6.93,16.095-6.514c7.315,2.318,14.519,3.155,21.142,3.155
						C167.576,332.083,172.965,331.428,177.567,330.541z"/>
				</g>
				<g id="g1042">
					<path id="path1040" inkscape:connector-curvature="0" fill="#4C2D45" d="M221.061,330.946
						c4.307-0.093,9.133-0.599,14.199-1.841c-12.108,13.938-27.842,20.026-46.817,18.169c-11.918-1.189-21.642-5.352-25.221-7.058
						c0.937-0.225,2.012-0.392,3.267-0.493c0.123-0.016,11.342-1.134,12.106-9.392c7.469-1.521,12.688-3.579,14.127-4.167
						c2.211,0.864,12.89,4.787,26.805,4.787c0.504,0,1.02,0,1.535-0.013V330.946z"/>
				</g>
				<g id="g1046">
					<path id="path1044" inkscape:connector-curvature="0" fill="#754569" d="M227.931,252.071
						c3.989,4.862,5.382,10.454,4.149,16.603c-2.978,14.881-22.666,38.558-40.388,38.558c-14.381,0-41.376-21.382-41.376-40.367
						c0-20.829,21.374-28.263,41.376-28.263C207.236,238.602,221.122,243.763,227.931,252.071z M209.191,291.628
						c5.594-4.705,5.369-8.859,3.777-10.232c-1.594-1.364-6.085-0.556-9.546,5.288c-2.879,4.854-5.373,8.857-3.777,10.229
						C201.241,298.28,204.873,295.268,209.191,291.628z M183.58,296.913c1.596-1.372-0.898-5.375-3.777-10.229
						c-3.462-5.844-7.952-6.652-9.544-5.288c-1.587,1.373-1.82,5.527,3.773,10.232C178.351,295.268,181.984,298.28,183.58,296.913z"
						/>
				</g>
				<g id="g1050">
					<path id="path1048" inkscape:connector-curvature="0" fill="#BC7444" d="M221.969,363.742c0.766,0.326,1.541,0.628,2.314,0.922
						c-0.434-0.646-0.865-1.285-1.307-1.929C221.969,361.723,220.962,363.742,221.969,363.742z"/>
				</g>
				<g id="g1056">
					<g id="g1054">
						<path id="path1052" inkscape:connector-curvature="0" fill="#428BD3" d="M405.375,294.071c0.123-1.505,0.02-3.076-0.265-4.676
							c-1.145-6.57-5.277-13.638-8.822-18.733c-2.938-4.228-5.472-7.09-5.537-7.156l-0.806-0.922l1.051-0.623
							c3.943-2.374,8.728,0.466,11.362,2.49c-0.856-3.955-3.781-6.464-6.978-8.054c-4.668-2.313-9.888-2.649-9.987-2.655
							l-3.403-0.196l2.96-1.696c3.068-1.751,5.135-5.206,6.477-8.411c0.221-0.532,0.425-1.057,0.611-1.568
							c0.556-1.55,0.939-2.941,1.171-3.929c-7.344,1.552-13.718,0.381-19.075-2.045c-2.952-1.335-5.599-3.047-7.906-4.909
							c-2.746-2.191-5.032-4.586-6.84-6.764c-3.317-3.993-5.062-7.27-5.11-7.368c-0.326-0.646-0.707-1.243-1.136-1.929
							c-1.202-1.86-2.634-4.099-3.83-8.775c-0.996-3.892-1.826-9.479-2.209-17.957c-0.013-0.254-0.013-0.519-0.022-0.779
							c-0.088-2.801,0.022-5.635,0.289-8.446c1.079-11.379,4.659-22.392,7.438-29.542c1.576-4.064,2.892-6.888,3.339-7.818
							c0.101-0.207,0.16-0.326,0.169-0.339l0.409-0.84l0.869,0.363c8.312,3.46,19.211,3.004,24.893,2.443
							c-3.573-1.926-8.844-6.186-12.102-15.3c-4.795-13.45-19.342-17.496-19.494-17.525l-3.595-0.972
							c-3.661,4.946-8.049,9.802-13.299,14.492l-0.473,0.427l-0.302-0.554c-0.103-0.172-10.216-17.467-32.992-27.701l-0.545-0.138
							v-0.331c0-0.538,0.324-12.563,6.339-15.845c-1.06-0.496-2.892-1.2-5.441-1.2c-3.087,0-6.096,1.009-9.089,3.01l-2.805,1.886
							l2.183-2.636c0.046-0.053,4.033-4.893,6.203-7.969c-1.535,0.026-5.367,0.654-10.51,5.309l-0.788,0.715l-0.046-1.068
							c-0.007-0.122-0.517-12.258,6.945-27.622c6.864-14.15,22.082-34.07,55.582-48.554l0.418-0.175l0.221,0.379
							c0.112,0.183,10.604,18.026,13.985,41.862c2.555,17.962,1.371,42.413-15.147,65.122l18.815-2.353
							C387.642,49.156,356.96-3.588,352.773-10.373C287.498,19.8,275.23,52.961,268.622,70.812
							c-1.96,5.296-3.374,9.124-5.627,11.124c-3.048,2.71-7.212,3.918-11.48,4.311c-5.618,0.517-11.399-0.392-15.04-1.163
							c-0.679-0.148-1.281-0.292-1.804-0.408c-0.164,1.306-0.403,2.588-0.747,3.81c-1.469,5.256-5.877,13.906-18.894,13.906
							c-0.39,0-0.775-0.013-1.178-0.024l-4.132-0.162l3.735-1.754c0.101-0.056,9.376-4.491,10.994-10.547
							c0.528-2.006,0.158-3.932-1.123-5.892l-6.253-2.501l-4.574-1.831l0.495-0.975c0.029-0.063,0.609-1.174,1.813-1.844
							c0.46-0.254,1.001-0.453,1.647-0.501c1.513-0.109,3.144,0.625,4.867,2.178c1.125,1.017,2.29,2.371,3.488,4.083
							c1.754,2.517,2.29,5.14,1.585,7.8c-1.156,4.305-5.329,7.739-8.46,9.789c8.951-1.07,12.588-7.073,14.039-12.271
							c2.693-9.617-0.808-21.467-5.459-24.05c-8.447-4.689-26.018,6.915-26.202,7.026l-5.397,3.603l4.057-5.068
							c4.491-5.609,4.013-15.347,2.846-22.495c-0.434-2.67-0.966-4.989-1.373-6.576c-3.241,5.548-12.603,20.842-23.179,31.423
							c-2.314,2.315-4.734,4.075-7.142,5.41c-3.352,1.852-6.693,2.882-9.757,3.404c-7.48,1.277-13.284-0.466-13.383-0.498
							l-0.464-0.138l-0.182-0.461c-0.158-0.421-0.328-0.827-0.488-1.232c-16.154-41.591-46.743-63.268-69.7-74.119
							C53.35-6.64,33.416-9.192,29.74-9.586c-0.856,1.786-4.513,11.659-9.614,57.572c-5.34,48.045,6.823,62.033,9.253,64.304
							c13.037-5.791,23.868-2.949,24.322-2.816l3.985,1.081l-4.038,0.88c-26.266,5.667-35.232,23.775-38.19,33.368
							c-0.337,1.102-0.604,2.101-0.801,2.949c13.42-12.039,31.967-2.989,32.171-2.885l0.679,0.331l-0.147,0.75
							c-0.004,0.029-0.085,0.474-0.215,1.25c-0.429,2.604-1.414,9.042-2.078,17.199c-0.479,5.879-0.788,12.653-0.613,19.517
							c0.107,4.077,0.381,8.192,0.898,12.179c1.014,7.784-0.834,13.403-4.421,17.769c-5.11,6.223-13.75,9.919-22.693,13.723
							c-4.232,1.799-8.612,3.672-12.765,5.852c-13.383,7.047-21.136,4.604-24.836,2.157c2.724,5.908,10.403,8.064,10.492,8.085
							l1.349,0.368l-0.771,1.163c-2.969,4.456-9.225,5.41-12.999,5.548c4.76,2.938,11.079,2.978,11.154,2.978h1.927l-1.099,1.584
							c-0.882,1.266-1.644,2.53-2.334,3.786c-3.959,7.161-5.04,14.046-4.585,20.209c0.484,6.496,2.665,12.174,4.948,16.489
							c2.728,5.147,5.603,8.366,5.925,8.719l0.129,0.183c0.039,0.069,2.542,4.652,1.252,9.94c-0.361,1.444-0.983,2.946-2.032,4.416
							c2.052,0.278,5.713,0.09,7.361-4.443l0.574-1.568l1.121,1.224c0.173,0.185,4.086,4.525,3.49,9.002
							c-0.09,0.708-0.293,1.383-0.596,2.019c0.996-0.395,2.06-0.832,3.124-1.301c3.683-1.595,7.418-3.494,8.587-4.954
							c0.72-0.896,2.275-1.341,4.627-1.341c0.574,0,1.2,0.032,1.872,0.077c6.739,0.543,16.706,3.659,24.484,9.249
							c3.698,2.655,6.901,5.868,9.032,9.635c2.759,4.877,5.84,9.408,9.218,13.602c2.459,3.06,5.089,5.929,7.882,8.626
							c5.395,5.201,11.399,9.718,18.003,13.541c4.589,2.668,9.474,4.999,14.642,6.976c8.813,3.391,18.445,5.813,28.9,7.225
							c13.238,1.783,23.987,4.12,32.528,6.687c15.903,4.777,24.14,10.351,26.43,14.682c0.285,0.538,0.445,0.988,0.515,1.394
							c2.345-0.342,7.729-1.907,8.699-9.122l0.201-1.552l1.333,0.834c0.109,0.069,2.825,1.796,3.26,4.647
							c0.109,0.715,0.07,1.431-0.123,2.141c1.228-0.604,2.739-1.42,4.204-2.406c2.323-1.576,4.528-3.582,5.292-5.868
							c0.484-1.462,1.631-2.586,3.295-3.516c3.043-1.709,7.843-2.769,13.7-4.059c1.513-0.334,3.081-0.681,4.677-1.049
							c4.521-1.046,9.301-2.305,13.901-4.109c5.452-2.135,12.625-5.614,20.063-10.041c3.061-1.825,6.17-3.812,9.22-5.927
							c6.529-4.525,12.789-9.67,17.784-15.135c2.424-2.657,4.554-5.394,6.264-8.173c0.109-0.183,0.234-0.363,0.344-0.546
							c5.178-8.258,12.406-16.449,20.566-22.893c4.195-3.306,8.631-6.165,13.166-8.319c6.161-2.935,12.496-4.591,18.611-4.382
							c16.662,0.578,31.624,8.719,36.154,11.421c0.12-2.016-0.077-5.593-2.516-7.617l-1.329-1.118l1.625-0.607
							c0.107-0.042,2.726-0.999,5.069,0.273c1.509,0.816,2.52,2.329,2.993,4.488c0.374,1.677,1.04,2.763,1.988,3.259
							c0.083,0.042,0.164,0.082,0.243,0.111c-1.393-1.526-2.573-3.934-2.201-7.299c0.626-5.59-1.504-9.074-1.535-9.111l-0.473-0.76
							l0.707-0.564C403.612,300.296,405.092,297.493,405.375,294.071z M66.666,117.063C43.989,98.401,38.57,70.446,38.22,49.416
							C37.806,24.603,44.153,3.83,44.215,3.62l0.14-0.432l0.458,0.093c35.661,7.768,54.432,24.379,63.9,36.947
							c10.269,13.652,12.108,25.648,12.13,25.759l0.149,1.06l-0.906-0.554c-5.936-3.566-9.774-3.452-11.342-3.179
							c2.726,2.604,7.567,6.589,7.615,6.631l2.634,2.165l-3.149-1.306c-2.317-0.956-4.6-1.452-6.799-1.452
							c-3.954,0-6.731,1.603-7.994,2.511c6.531,2.069,8.922,13.858,9.021,14.388l0.061,0.313l-0.263,0.193
							c-7.265,5.14-13.869,11.029-19.367,16.489c-10.002,9.935-16.376,18.468-16.47,18.601l-0.285,0.374l-0.394-0.254
							C70.964,120.422,68.753,118.78,66.666,117.063z M73.55,211.762c-2.564-6.719-3.967-14.033-3.967-21.685
							c0-32.647,25.572-59.209,57.012-59.209c31.431,0,57.016,26.562,57.016,59.209c0,8.134-1.587,15.883-4.462,22.938
							c-8.644,21.298-28.948,36.271-52.554,36.271C102.525,249.287,81.895,233.712,73.55,211.762z M221.969,363.742
							c-1.007,0,0-2.019,1.007-1.007c0.442,0.644,0.874,1.282,1.307,1.929C223.511,364.37,222.736,364.068,221.969,363.742z
							 M222.221,350.919c-0.705,0.668-1.697,1.335-2.754,2.191c-1.068,0.851-2.393,1.656-3.816,2.562
							c-0.736,0.4-1.504,0.837-2.299,1.269c-0.799,0.458-1.677,0.79-2.557,1.203c-0.874,0.429-1.811,0.744-2.772,1.102
							c-0.941,0.392-1.957,0.646-2.973,0.933c-2.052,0.57-4.206,1.001-6.429,1.253c-1.11,0.143-2.231,0.172-3.363,0.262
							c-1.128-0.013-2.262,0.045-3.398-0.013c-1.13-0.069-2.264-0.125-3.383-0.273c-1.121-0.109-2.229-0.299-3.326-0.49
							c-2.196-0.382-4.313-0.948-6.321-1.598c-2.03-0.591-3.915-1.388-5.695-2.143c-1.76-0.792-3.396-1.597-4.854-2.435
							c-1.467-0.798-2.772-1.624-3.906-2.39c-1.134-0.766-2.091-1.46-2.879-2.043c-1.439-1.102-2.24-1.854-2.336-1.945
							c0.048,0.027,0.274,0.175,0.653,0.429c0.434,0.294,1.093,0.678,1.905,1.195c1.66,1.001,4.088,2.337,7.085,3.733
							c1.493,0.707,3.149,1.375,4.907,2.069c1.765,0.646,3.643,1.301,5.621,1.833c0.979,0.307,2.008,0.519,3.026,0.781
							c1.029,0.194,2.067,0.432,3.129,0.594c1.06,0.175,2.128,0.336,3.208,0.437c1.073,0.14,2.161,0.18,3.243,0.228
							c1.084,0.072,2.176,0.032,3.256,0.042c1.082-0.069,2.163-0.09,3.225-0.212c2.115-0.244,4.206-0.524,6.183-1.028
							c0.987-0.246,1.968-0.488,2.897-0.8c0.937-0.294,1.863-0.548,2.735-0.914c1.765-0.649,3.368-1.401,4.859-2.104
							c0.742-0.374,1.412-0.766,2.089-1.118c0.666-0.344,1.298-0.681,1.855-1.049c1.13-0.731,2.181-1.282,2.938-1.876
							c1.379-0.983,2.271-1.589,2.472-1.722C224.281,349.059,223.5,349.777,222.221,350.919z M275.169,307.391
							c-0.079-0.188-0.177-0.424-0.293-0.686c-0.12-0.262-0.219-0.57-0.394-0.877c-0.171-0.315-0.342-0.646-0.512-1.001
							c-0.16-0.371-0.434-0.683-0.648-1.054c-0.199-0.389-0.488-0.713-0.764-1.054c-0.009-0.016-0.02-0.034-0.042-0.045
							c-10.192,14.675-22.458,22.042-33.857,25.505c-13.643,17.106-30.452,21.43-43.944,21.43c-2.286,0-4.473-0.122-6.534-0.331
							c-15.439-1.55-26.929-7.76-27.42-8.022l0.136-0.247c-2.873,1.333-3.897,3.513-5.082,6.067
							c-1.865,3.985-4.182,8.941-14.764,12.107c-2.757,0.827-5.152,1.163-7.223,1.163c-6.179,0-9.468-3.06-11.033-5.267
							c-3.836-5.439-3.444-14.32,0.882-20.225c3.95-5.381,9.417-6.843,13.759-7.015c-8.787-3.288-17.637-8.83-25.703-17.692
							c-0.217,0.408-0.396,0.84-0.536,1.269c-0.293,0.882-0.464,1.749-0.574,2.493c-0.112,0.752-0.195,1.399-0.215,1.844
							c-0.033,0.456-0.053,0.713-0.053,0.713s-0.282-1.007-0.311-2.594c-0.011-0.789,0.05-1.714,0.291-2.694
							c0.239-0.978,0.683-2.024,1.471-2.861c0.383-0.424,0.88-0.76,1.386-1.004c0.506-0.257,1.058-0.347,1.572-0.421
							c0.521-0.045,1.02-0.011,1.487,0.048c0.451,0.085,0.876,0.172,1.246,0.307c0.385,0.106,0.72,0.252,1.009,0.395
							c0.296,0.116,0.541,0.244,0.736,0.355c0.403,0.22,0.624,0.358,0.624,0.358s-0.245-0.061-0.696-0.17
							c-0.42-0.13-1.058-0.262-1.806-0.376c-0.361-0.069-0.775-0.079-1.191-0.106c-0.42-0.013-0.856,0.008-1.298,0.077
							c-0.429,0.085-0.874,0.207-1.266,0.416c-0.21,0.111-0.414,0.23-0.596,0.374c9.849,10.907,20.897,16.683,31.56,19.414
							c12.31,3.158,24.085,2.276,32.865,0.551c7.539-1.47,12.866-3.561,14.39-4.194c1.414-6.316-0.282-13.027-0.898-15.104
							c-15.338-0.697-42.635-22.116-42.635-42.365c0-18.67,16.63-30.274,43.395-30.274c16.133,0,30.614,5.439,37.803,14.206
							c4.32,5.267,5.901,11.599,4.563,18.283c-3.028,15.117-22.767,38.987-41.023,40.121c0.745,2.663,2.135,8.984,0.836,15.231
							c2.927,1.089,13.827,4.774,27.225,4.493c5.706-0.135,11.101-0.914,16.201-2.366c13.47-3.836,24.775-12.29,33.713-25.272
							c-0.14-0.09-0.289-0.18-0.436-0.286c-0.377-0.169-0.745-0.413-1.147-0.506c-0.394-0.148-0.786-0.212-1.16-0.283
							c-0.385-0.027-0.755-0.093-1.097-0.074c-0.692-0.008-1.276,0.056-1.677,0.138c-0.405,0.072-0.639,0.138-0.639,0.138
							s0.188-0.146,0.578-0.323c0.394-0.159,0.959-0.424,1.686-0.527c0.359-0.087,0.76-0.093,1.2-0.106
							c0.425,0.042,0.887,0.042,1.347,0.183c0.462,0.093,0.922,0.294,1.386,0.506c0.416,0.273,0.882,0.511,1.241,0.856
							c0.363,0.355,0.744,0.694,1.02,1.102c0.298,0.395,0.587,0.787,0.779,1.211c0.201,0.403,0.44,0.781,0.563,1.189
							c0.14,0.397,0.252,0.779,0.366,1.123c0.125,0.342,0.158,0.678,0.221,0.957c0.037,0.294,0.081,0.543,0.12,0.747
							c0.064,0.413,0.081,0.66,0.081,0.66S275.34,307.762,275.169,307.391z M320.648,197.106c-0.228,2.742-0.644,5.431-1.241,8.054
							c-2.036,8.986-6.157,17.207-11.845,24.143c-0.615,0.755-1.246,1.491-1.901,2.218c-1.618,1.788-3.346,3.481-5.167,5.071
							c-1.428,1.237-2.912,2.413-4.454,3.518c-9.967,7.143-22.226,11.374-35.482,11.374c-33.253,0-60.307-26.562-60.307-59.209
							c0-32.647,27.054-59.209,60.307-59.209c17.937,0,34.061,7.741,45.116,19.978c3.731,4.125,6.875,8.745,9.319,13.766
							c3.764,7.72,5.87,16.354,5.87,25.465C320.863,193.903,320.782,195.514,320.648,197.106z"/>
					</g>
				</g>
				<g id="g1060">
					<path id="path1058" inkscape:connector-curvature="0" d="M349.736,108.848c-0.138,0.201-0.287,0.395-0.431,0.599l-1.049-0.286
						c0.033-0.05,0.07-0.087,0.114-0.138L349.736,108.848z"/>
				</g>
				<g id="g1064">
					<path id="path1062" inkscape:connector-curvature="0" d="M348.368,109.022c-0.042,0.05-0.083,0.087-0.112,0.138l-0.335-0.087
						L348.368,109.022z"/>
				</g>
				<g id="g1068">
					<path id="path1066" inkscape:connector-curvature="0" d="M313.779,217.22l-0.462,0.893c-0.204-0.109-0.405-0.212-0.607-0.315
						c0.153-0.302,0.302-0.596,0.447-0.901C313.357,217,313.569,217.108,313.779,217.22z"/>
				</g>
				<g id="g1072">
					<path id="path1070" inkscape:connector-curvature="0" d="M271.541,162.628c0-8.377,7.134-15.167,15.922-15.167
						c8.789,0,15.927,6.79,15.927,15.167c0,8.372-7.138,15.165-15.927,15.165C278.674,177.793,271.541,171,271.541,162.628z
						 M281.7,152.468c-2.73,0-4.944,2.021-4.944,4.525c0,2.501,2.214,4.528,4.944,4.528c2.726,0,4.933-2.027,4.933-4.528
						C286.633,154.49,284.426,152.468,281.7,152.468z"/>
				</g>
				<g id="g1076">
					<path id="path1074" inkscape:connector-curvature="0" d="M301.693,95.638c0-0.54,0.322-12.563,6.337-15.843
						c-1.058-0.498-2.895-1.2-5.441-1.2c-3.087,0-6.091,1.009-9.091,3.004l-2.807,1.886l2.185-2.631
						c0.048-0.05,4.033-4.899,6.203-7.969c-1.533,0.024-5.364,0.654-10.508,5.304l-0.788,0.721l-0.048-1.073
						c-0.004-0.122-0.515-12.253,6.945-27.616c6.864-14.15,22.086-34.065,55.582-48.554l0.416-0.18l0.221,0.384
						c0.118,0.177,10.608,18.021,13.987,41.856c2.553,17.965,1.373,42.418-15.149,65.122l-1.362,0.183
						c16.851-22.683,18.07-47.203,15.52-65.157c-3.081-21.719-12.099-38.388-13.637-41.104
						c-32.902,14.346-47.875,33.906-54.634,47.844c-6.083,12.515-6.818,22.832-6.884,26.095c5.141-4.35,9.021-4.83,10.495-4.83
						c0.541,0,0.858,0.053,0.882,0.053l0.729,0.162l-0.407,0.615c-1.261,1.868-3.488,4.719-5.036,6.66
						c2.4-1.189,4.854-1.788,7.315-1.788c4.206,0,6.882,1.757,6.993,1.825l0.847,0.567l-0.959,0.336
						c-5.752,2.006-6.326,12.976-6.376,15c20.604,9.368,30.698,24.437,32.565,27.462c4.878-4.408,9.003-8.968,12.474-13.609
						l1.049,0.281c-3.665,4.946-8.053,9.8-13.299,14.487l-0.477,0.427l-0.304-0.554c-0.101-0.172-10.214-17.467-32.986-27.701
						l-0.545-0.132v-0.334H301.693z"/>
				</g>
				<g id="g1080">
					<path id="path1078" inkscape:connector-curvature="0" fill="#FFFFFF" d="M281.7,152.468c2.726,0,4.933,2.021,4.933,4.525
						c0,2.501-2.207,4.528-4.933,4.528c-2.73,0-4.944-2.027-4.944-4.528C276.756,154.49,278.965,152.468,281.7,152.468z"/>
				</g>
				<g id="g1084">
					<path id="path1082" inkscape:connector-curvature="0" d="M272.92,302.087c-0.129,0.196-0.274,0.387-0.405,0.58
						c-0.243-0.355-0.574-0.607-0.874-0.896c-0.195-0.193-0.405-0.35-0.628-0.487c0.081-0.111,0.164-0.23,0.245-0.342
						L272.92,302.087z"/>
				</g>
				<g id="g1088">
					<path id="path1086" inkscape:connector-curvature="0" d="M272.92,302.087l-1.662-1.145c-0.081,0.111-0.164,0.23-0.245,0.342
						c-0.14-0.09-0.291-0.18-0.431-0.281c-0.385-0.172-0.753-0.413-1.154-0.506c-0.392-0.154-0.788-0.215-1.16-0.292
						c-0.381-0.021-0.755-0.09-1.097-0.072c-0.685-0.01-1.272,0.058-1.679,0.14c-0.401,0.069-0.635,0.143-0.635,0.143
						s0.193-0.151,0.576-0.326c0.394-0.162,0.961-0.424,1.684-0.535c0.363-0.082,0.766-0.088,1.202-0.104
						c0.423,0.045,0.885,0.045,1.349,0.183c0.471,0.093,0.922,0.302,1.386,0.506c0.412,0.273,0.878,0.514,1.239,0.856
						c0.368,0.352,0.749,0.694,1.023,1.102c0.302,0.395,0.582,0.784,0.777,1.208c0.199,0.406,0.442,0.792,0.565,1.192
						c0.142,0.395,0.254,0.779,0.363,1.123c0.127,0.339,0.158,0.676,0.221,0.956c0.035,0.294,0.088,0.546,0.12,0.75
						c0.07,0.413,0.088,0.66,0.088,0.66s-0.112-0.228-0.285-0.599c-0.079-0.188-0.177-0.424-0.291-0.686
						c-0.12-0.262-0.219-0.57-0.394-0.877c-0.173-0.315-0.342-0.646-0.515-1.001c-0.158-0.371-0.434-0.689-0.646-1.054
						c-0.201-0.389-0.49-0.713-0.764-1.054c-0.011-0.021-0.02-0.042-0.042-0.05C272.646,302.474,272.791,302.283,272.92,302.087z"/>
				</g>
				<g id="g1092">
					<path id="path1090" inkscape:connector-curvature="0" d="M237.298,326.556c13.47-3.839,24.779-12.293,33.715-25.271
						c0.223,0.143,0.434,0.294,0.628,0.487c0.3,0.289,0.635,0.541,0.874,0.896c-10.192,14.675-22.458,22.037-33.857,25.51
						c0.094-0.098,0.173-0.209,0.254-0.307l-1.596-1.253L237.298,326.556z"/>
				</g>
				<g id="g1096">
					<path id="path1094" inkscape:connector-curvature="0" d="M238.912,327.87c-0.081,0.098-0.16,0.209-0.254,0.307
						c-1.139,0.355-2.279,0.66-3.398,0.932c0.696-0.808,1.379-1.635,2.056-2.493L238.912,327.87z"/>
				</g>
				<g id="g1100">
					<path id="path1098" inkscape:connector-curvature="0" d="M212.968,281.396c1.592,1.373,1.813,5.529-3.777,10.234
						c-4.318,3.643-7.95,6.65-9.546,5.285c-1.596-1.372,0.898-5.378,3.777-10.232C206.883,280.84,211.374,280.035,212.968,281.396z"
						/>
				</g>
				<g id="g1104">
					<path id="path1102" inkscape:connector-curvature="0" d="M206.651,214.001c0.123,0.315,0.261,0.63,0.403,0.938
						c-0.698,0.482-1.058,0.776-1.082,0.792l-0.637-0.792C205.357,214.92,205.799,214.581,206.651,214.001z"/>
				</g>
				<g id="g1108">
					<path id="path1106" inkscape:connector-curvature="0" d="M260.558,249.462c22.798,0,42.587-12.907,52.153-31.664
						c0.204,0.103,0.407,0.204,0.611,0.315l0.462-0.893c-0.215-0.106-0.423-0.22-0.624-0.323c3.652-7.455,5.688-15.808,5.688-24.623
						c0-31.532-26.15-57.188-58.29-57.188c-32.143,0-58.292,25.656-58.292,57.188c0,7.694,1.561,15.03,4.386,21.727
						c-0.852,0.58-1.294,0.919-1.316,0.938l0.644,0.792c0.02-0.016,0.377-0.31,1.079-0.792
						C216.003,235.243,236.622,249.462,260.558,249.462z M320.863,192.274c0,32.65-27.052,59.209-60.305,59.209
						s-60.307-26.559-60.307-59.209c0-32.645,27.054-59.204,60.307-59.204S320.863,159.629,320.863,192.274z"/>
				</g>
				<g id="g1112">
					<path id="path1110" inkscape:connector-curvature="0" d="M193.877,324.434c2.923,1.092,13.823,4.771,27.225,4.493
						c5.699-0.135,11.099-0.917,16.196-2.371l0.018,0.061c-0.677,0.856-1.36,1.685-2.058,2.493
						c-5.064,1.243-9.89,1.743-14.197,1.836c-0.519,0.011-1.031,0.011-1.537,0.011c-13.921,0-24.595-3.929-26.809-4.793
						c0.243-0.114,0.388-0.175,0.407-0.183l0.434-0.204l0.12-0.469C193.755,325.012,193.82,324.728,193.877,324.434z"/>
				</g>
				<g id="g1116">
					<path id="path1114" inkscape:connector-curvature="0" d="M192.307,325.989l0.788-1.852c0.018,0.008,0.282,0.116,0.777,0.297
						c-0.053,0.294-0.123,0.578-0.193,0.872l-0.123,0.472l-0.434,0.204c-0.018,0.008-0.164,0.069-0.407,0.183
						C192.491,326.072,192.358,326.008,192.307,325.989L192.307,325.989z"/>
				</g>
				<g id="g1120">
					<path id="path1118" inkscape:connector-curvature="0" d="M192.653,307.905c0.029,0.085,0.184,0.543,0.385,1.295
						c-0.444,0.034-0.902,0.045-1.347,0.045c-0.252,0-0.501-0.011-0.758-0.019c-0.116-0.416-0.201-0.646-0.201-0.66L192.653,307.905
						z"/>
				</g>
				<g id="g1124">
					<path id="path1122" inkscape:connector-curvature="0" d="M163.213,340.219c3.584,1.703,13.313,5.876,25.23,7.055
						c18.979,1.868,34.709-4.226,46.815-18.164c1.121-0.273,2.262-0.577,3.4-0.932c-13.639,17.106-30.452,21.43-43.949,21.43
						c-2.282,0-4.469-0.127-6.529-0.331c-15.443-1.55-26.936-7.762-27.42-8.027l0.136-0.241
						C161.557,340.693,162.328,340.433,163.213,340.219z"/>
				</g>
				<g id="g1128">
					<path id="path1126" inkscape:connector-curvature="0" d="M193.096,324.135l-0.788,1.852c0.05,0.021,0.184,0.08,0.414,0.177
						c-1.445,0.588-6.658,2.652-14.127,4.167c0.033-0.294,0.037-0.588,0.037-0.898h-1.003l-0.182-0.906
						c7.536-1.47,12.864-3.558,14.385-4.197c1.419-6.316-0.282-13.021-0.898-15.104c0.256,0.008,0.506,0.019,0.758,0.019
						c0.444,0,0.904-0.011,1.347-0.045c0.744,2.663,2.139,8.984,0.841,15.228C193.378,324.254,193.113,324.146,193.096,324.135z"/>
				</g>
				<g id="g1132">
					<path id="path1130" inkscape:connector-curvature="0" d="M179.807,286.684c2.875,4.854,5.369,8.859,3.773,10.232
						c-1.594,1.364-5.229-1.643-9.544-5.285c-5.592-4.705-5.36-8.862-3.775-10.234C171.85,280.035,176.341,280.84,179.807,286.684z"
						/>
				</g>
				<g id="g1136">
					<path id="path1134" inkscape:connector-curvature="0" d="M177.629,329.433h1.007c0,0.31-0.011,0.604-0.042,0.898
						c-0.342,0.079-0.683,0.14-1.027,0.209C177.607,330.191,177.629,329.812,177.629,329.433z"/>
				</g>
				<g id="g1140">
					<path id="path1138" inkscape:connector-curvature="0" d="M178.29,212.668l-0.442,0.909c-0.313-0.154-0.615-0.291-0.928-0.434
						c0.131-0.315,0.263-0.623,0.383-0.938C177.635,212.356,177.959,212.512,178.29,212.668z"/>
				</g>
				<g id="g1144">
					<path id="path1142" inkscape:connector-curvature="0" d="M166.484,339.723c-1.25,0.106-2.33,0.273-3.271,0.496
						c-0.685-0.326-1.139-0.551-1.349-0.668c1.239-0.403,2.735-0.684,4.561-0.834c0.451-0.024,10.302-0.186,11.143-8.176
						c0.344-0.069,0.685-0.13,1.027-0.209C177.826,338.595,166.602,339.71,166.484,339.723z"/>
				</g>
				<g id="g1148">
					<path id="path1146" inkscape:connector-curvature="0" d="M161.864,339.551c0.212,0.117,0.663,0.342,1.349,0.668
						c-0.889,0.215-1.655,0.474-2.317,0.784l0.755-1.378C161.719,339.594,161.792,339.575,161.864,339.551z"/>
				</g>
				<g id="g1152">
					<path id="path1150" inkscape:connector-curvature="0" d="M161.864,339.551c-0.072,0.024-0.144,0.042-0.212,0.074l0.081-0.143
						C161.743,339.482,161.778,339.514,161.864,339.551z"/>
				</g>
				<g id="g1156">
					<path id="path1154" inkscape:connector-curvature="0" d="M178.826,359.32c-2.028-0.591-3.913-1.388-5.693-2.143
						c-1.754-0.792-3.392-1.597-4.854-2.435c-1.471-0.798-2.772-1.624-3.906-2.39c-1.128-0.766-2.089-1.46-2.875-2.043
						c-1.443-1.102-2.24-1.854-2.341-1.945c0.053,0.027,0.274,0.175,0.653,0.429c0.438,0.294,1.093,0.678,1.909,1.195
						c1.655,1.001,4.088,2.337,7.085,3.733c1.489,0.707,3.149,1.375,4.902,2.069c1.769,0.646,3.643,1.301,5.621,1.833
						c0.979,0.307,2.008,0.519,3.026,0.781c1.033,0.194,2.069,0.432,3.131,0.594c1.058,0.175,2.13,0.336,3.21,0.437
						c1.068,0.14,2.154,0.18,3.241,0.228c1.082,0.072,2.179,0.032,3.251,0.042c1.079-0.069,2.165-0.09,3.227-0.212
						c2.115-0.244,4.208-0.524,6.183-1.028c0.987-0.246,1.966-0.488,2.895-0.8c0.935-0.294,1.865-0.548,2.737-0.914
						c1.765-0.649,3.368-1.401,4.859-2.104c0.738-0.374,1.414-0.766,2.089-1.118c0.67-0.344,1.303-0.681,1.859-1.049
						c1.125-0.731,2.179-1.282,2.934-1.876c1.384-0.983,2.273-1.589,2.476-1.722c-0.171,0.175-0.953,0.893-2.233,2.035
						c-0.705,0.668-1.693,1.335-2.752,2.191c-1.071,0.851-2.391,1.656-3.816,2.562c-0.736,0.4-1.502,0.837-2.301,1.269
						c-0.797,0.458-1.673,0.79-2.555,1.203c-0.874,0.429-1.815,0.744-2.772,1.102c-0.946,0.392-1.96,0.646-2.978,0.933
						c-2.052,0.57-4.206,1.001-6.426,1.253c-1.11,0.143-2.227,0.172-3.365,0.262c-1.128-0.013-2.257,0.045-3.394-0.013
						c-1.13-0.069-2.268-0.125-3.387-0.273c-1.121-0.109-2.231-0.299-3.315-0.49C182.954,360.536,180.834,359.969,178.826,359.32z"
						/>
				</g>
				<g id="g1160">
					<path id="path1158" inkscape:connector-curvature="0" d="M144.577,327.979c12.31,3.155,24.087,2.276,32.87,0.548l0.177,0.906
						c0,0.379-0.018,0.758-0.061,1.107c-4.6,0.893-9.989,1.542-15.844,1.542c-6.623,0-13.827-0.829-21.142-3.153
						c2.1,0.207,3.492,0.625,3.534,0.646l0.304-0.962L144.577,327.979z"/>
				</g>
				<g id="g1164">
					<ellipse id="circle1162" fill="#FFFFFF" cx="147.049" cy="153.979" rx="1.191" ry="0.986"/>
				</g>
				<g id="g1168">
					<path id="path1166" inkscape:connector-curvature="0" d="M148.297,266.865c0-18.667,16.632-30.273,43.395-30.273
						c16.137,0,30.617,5.439,37.805,14.205c4.318,5.272,5.901,11.599,4.561,18.283c-3.028,15.119-22.765,38.987-41.021,40.121
						c-0.204-0.752-0.361-1.211-0.385-1.295l-1.922,0.667c0,0.008,0.081,0.244,0.201,0.66
						C175.597,308.533,148.297,287.114,148.297,266.865z M191.692,238.602c-20.002,0-41.376,7.429-41.376,28.263
						c0,18.985,26.995,40.367,41.376,40.367c17.722,0,37.411-23.677,40.388-38.558c1.228-6.149-0.16-11.741-4.149-16.603
						C221.122,243.763,207.236,238.602,191.692,238.602z"/>
				</g>
				<g id="g1172">
					<path id="path1170" inkscape:connector-curvature="0" d="M144.415,328.615l-0.304,0.962c-0.042-0.021-1.434-0.44-3.534-0.649
						c-1.047-0.321-2.098-0.686-3.149-1.094C141.352,327.685,144.356,328.596,144.415,328.615z"/>
				</g>
				<g id="g1176">
					<path id="path1174" inkscape:connector-curvature="0" d="M147.049,148.627c-2.958,0-5.356,2.392-5.356,5.349
						c0,2.959,2.395,5.352,5.356,5.352c2.956,0,5.349-2.392,5.349-5.352C152.398,151.019,150.005,148.627,147.049,148.627z
						 M136.48,159.327c0-8.369,7.123-15.157,15.918-15.157c8.795,0,15.922,6.788,15.922,15.157c0,8.377-7.127,15.165-15.922,15.165
						C143.603,174.492,136.48,167.704,136.48,159.327z"/>
				</g>
				<g id="g1180">
					<path id="path1178" inkscape:connector-curvature="0" d="M113.019,308.565c9.849,10.905,20.901,16.68,31.558,19.414
						l-0.162,0.636c-0.059-0.024-3.063-0.93-6.987-0.781c-8.789-3.288-17.639-8.83-25.703-17.687
						c0.221-0.424,0.493-0.808,0.815-1.139C112.686,308.843,112.846,308.692,113.019,308.565z"/>
				</g>
				<g id="g1184">
					<path id="path1182" inkscape:connector-curvature="0" d="M155.81,347.07c-1.861,3.984-4.18,8.941-14.764,12.113
						c-2.757,0.827-5.148,1.158-7.219,1.158c-6.183,0-9.472-3.06-11.038-5.261c-3.836-5.444-3.44-14.32,0.887-20.23
						c3.948-5.381,9.417-6.838,13.755-7.015c1.051,0.408,2.102,0.773,3.149,1.097c-4.235-0.418-11.351,0.048-16.093,6.52
						c-4.088,5.582-4.471,13.933-0.869,19.043c3.33,4.71,9.417,6.038,17.135,3.728c10.162-3.047,12.277-7.58,14.142-11.588
						c1.388-2.97,2.632-5.619,6.761-7.002l-0.758,1.383C158.019,342.341,156.999,344.519,155.81,347.07z"/>
				</g>
				<g id="g1188">
					<path id="path1186" inkscape:connector-curvature="0" d="M111.215,309.582l1.513-1.341c0.099,0.111,0.19,0.207,0.291,0.323
						c-0.173,0.127-0.333,0.278-0.477,0.442c-0.32,0.336-0.591,0.715-0.815,1.139C111.557,309.956,111.381,309.773,111.215,309.582z
						"/>
				</g>
				<g id="g1192">
					<path id="path1190" inkscape:connector-curvature="0" d="M110.355,316.465c0,0-0.285-1.007-0.311-2.596
						c-0.011-0.787,0.05-1.717,0.289-2.694c0.237-0.98,0.683-2.027,1.474-2.864c0.383-0.424,0.876-0.76,1.382-0.999
						c0.506-0.262,1.062-0.352,1.574-0.421c0.523-0.051,1.018-0.011,1.482,0.048c0.458,0.077,0.88,0.172,1.248,0.307
						c0.383,0.103,0.725,0.246,1.014,0.387c0.296,0.119,0.541,0.246,0.736,0.358c0.401,0.22,0.624,0.363,0.624,0.363
						s-0.256-0.064-0.696-0.177c-0.425-0.127-1.062-0.26-1.806-0.376c-0.366-0.064-0.775-0.072-1.191-0.106
						c-0.42-0.008-0.858,0.016-1.303,0.079c-0.429,0.085-0.869,0.207-1.266,0.416c-0.201,0.111-0.405,0.233-0.591,0.376
						c-0.103-0.111-0.195-0.212-0.291-0.323l-1.513,1.341c0.169,0.185,0.342,0.374,0.512,0.564c-0.215,0.397-0.392,0.84-0.534,1.269
						c-0.291,0.882-0.466,1.746-0.576,2.493c-0.112,0.75-0.19,1.388-0.215,1.839C110.374,316.203,110.355,316.465,110.355,316.465
						L110.355,316.465z"/>
				</g>
				<g id="g1202">
					<g id="g1196">
						<path id="path1194" inkscape:connector-curvature="0" fill="#FFFFFF" d="M126.594,132.885c-2.284,0-4.532,0.162-6.739,0.448
							c-27.146,3.468-48.253,27.579-48.253,56.743c0,7.468,1.382,14.608,3.904,21.155c0.116,0.307,0.232,0.623,0.368,0.935
							c8.323,20.595,27.919,35.1,50.717,35.1c10.186,0,19.728-2.906,27.915-7.937c9.853-6.059,17.744-15.218,22.41-26.186
							c0.136-0.315,0.265-0.623,0.385-0.933c2.763-6.814,4.292-14.29,4.292-22.132C181.592,158.538,156.918,132.885,126.594,132.885
							z M78.146,211.142c2.52-1.094,6.606-2.692,11.94-4.265C84.752,208.451,80.671,210.048,78.146,211.142z M152.398,174.492
							c-8.795,0-15.918-6.788-15.918-15.165c0-8.369,7.123-15.157,15.918-15.157c8.795,0,15.922,6.788,15.922,15.157
							C168.321,167.704,161.194,174.492,152.398,174.492z"/>
					</g>
					<g id="g1200">
						<path id="path1198" inkscape:connector-curvature="0" fill="#FFFFFF" d="M260.558,135.086c-3.332,0-6.586,0.289-9.763,0.819
							c-27.507,4.567-48.529,28.104-48.529,56.369c0,7.694,1.561,15.03,4.386,21.727c0.123,0.315,0.261,0.63,0.403,0.938
							c8.949,20.304,29.563,34.523,53.504,34.523c8.16,0,15.931-1.656,22.99-4.639c12.662-5.354,23.019-14.979,29.163-27.025
							c0.153-0.305,0.302-0.596,0.447-0.901c3.654-7.46,5.686-15.813,5.686-24.623C318.848,160.742,292.698,135.086,260.558,135.086
							z M287.463,177.793c-8.789,0-15.922-6.793-15.922-15.165c0-8.377,7.134-15.167,15.922-15.167
							c8.789,0,15.927,6.79,15.927,15.167C303.383,171,296.254,177.793,287.463,177.793L287.463,177.793z"/>
					</g>
				</g>
				<g id="g1206">
					<path id="path1204" inkscape:connector-curvature="0" d="M75.506,211.23c0.116,0.307,0.232,0.623,0.368,0.935
						c-0.407,0.191-0.631,0.302-0.661,0.323l-0.464-0.898C74.781,211.572,75.044,211.439,75.506,211.23z"/>
				</g>
				<g id="g1210">
					<path id="path1208" inkscape:connector-curvature="0" d="M75.217,212.488c0.028-0.021,0.25-0.132,0.657-0.323
						c8.323,20.595,27.919,35.1,50.721,35.1c22.432,0,41.777-14.039,50.325-34.123c0.313,0.143,0.613,0.281,0.928,0.434l0.442-0.909
						l0.858,0.347c-8.647,21.292-28.952,36.271-52.554,36.271c-24.07,0-44.695-15.575-53.044-37.527l1.204-0.169L75.217,212.488z"/>
				</g>
				<g id="g1214">
					<path id="path1212" inkscape:connector-curvature="0" d="M126.594,132.885c-30.317,0-54.993,25.653-54.993,57.19
						c0,7.468,1.382,14.608,3.904,21.155c-0.462,0.209-0.725,0.342-0.758,0.36l-1.202,0.172c-2.564-6.719-3.967-14.031-3.967-21.679
						c0-32.647,25.576-59.209,57.009-59.209c31.438,0,57.02,26.562,57.02,59.209c0,8.131-1.59,15.88-4.46,22.935l-0.858-0.339
						c-0.331-0.164-0.657-0.318-0.987-0.464c2.768-6.819,4.289-14.296,4.289-22.132
						C181.592,158.538,156.918,132.885,126.594,132.885z"/>
				</g>
				<g id="g1218">
					<path id="path1216" inkscape:connector-curvature="0" d="M73.351,121.967C45.014,103.602,38.605,72.372,38.22,49.416
						C37.806,24.603,44.153,3.83,44.215,3.62l0.14-0.432l0.458,0.093c35.661,7.768,54.432,24.379,63.9,36.947
						c10.269,13.652,12.108,25.648,12.13,25.759l0.149,1.06l-0.906-0.554c-5.936-3.566-9.774-3.452-11.342-3.179
						c2.726,2.604,7.567,6.589,7.615,6.631l2.634,2.165l-3.149-1.306c-2.317-0.956-4.6-1.452-6.799-1.452
						c-3.954,0-6.731,1.603-7.994,2.511c6.531,2.069,8.922,13.858,9.021,14.388l0.061,0.313l-0.263,0.193
						c-20.464,14.484-35.692,34.889-35.843,35.09l-0.282,0.371L73.351,121.967z M39.227,49.424
						c0.381,22.599,6.654,53.291,34.271,71.441c2.19-2.864,16.599-21.274,35.51-34.746c-0.44-1.974-3.114-12.621-9.152-13.493
						l-0.998-0.151l0.714-0.702c0.147-0.146,3.523-3.434,9.468-3.434c1.495,0,3.028,0.215,4.57,0.631
						c-1.894-1.608-4.631-3.971-6.225-5.566l-0.515-0.522l0.674-0.297c0.044-0.016,0.961-0.403,2.671-0.403
						c1.975,0,5.167,0.514,9.424,2.888c-0.703-3.195-3.4-13.17-11.775-24.283C98.535,28.428,80.08,12.098,45.047,4.37
						C44.142,7.507,38.844,26.77,39.227,49.424z"/>
				</g>
				<g id="g1222">
					<path id="path1220" inkscape:connector-curvature="0" d="M220.809,80.834c-2.08-2.188-3.462-2.511-4.208-2.464
						c-0.405,0.029-0.747,0.183-1.016,0.376L220.809,80.834z M266.735,70.107c6.731-18.198,19.261-52.067,86.001-82.695l0.788-0.358
						l0.475,0.723c0.383,0.567,37.367,57.644,16.266,119.963l-0.201,0.588l-12.684,1.6c4.983,2.218,13.328,7.302,16.912,17.324
						c4.804,13.442,14.289,15.48,14.388,15.498l5.257,1.049l-5.286,0.933c-0.694,0.132-16.783,2.888-28.933-1.727
						c-2.076,4.443-11.482,25.703-10.597,45.094c0.819,18.124,3.654,22.519,5.715,25.738c0.455,0.713,0.878,1.37,1.242,2.109
						c0.131,0.262,13.783,26.024,38.201,19.666l1.509-0.4l-0.25,1.534c-0.083,0.466-1.771,10.234-7.44,15.308
						c5.218,0.885,16.531,4.051,16.531,14.807v2.427l-1.725-1.709c-0.061-0.061-5.505-5.423-9.728-4.364
						c3.449,4.109,15.217,19.075,14.208,31.018c-0.304,3.706-1.828,6.801-4.515,9.196c0.696,1.465,1.951,4.856,1.417,9.627
						c-0.587,5.251,3.387,7.015,3.429,7.037l2.172,0.927l-2.172,0.925c-0.092,0.034-2.29,0.948-4.388-0.122
						c-1.515-0.779-2.533-2.329-3.048-4.626c-0.344-1.561-1.007-2.617-1.977-3.155c-0.576-0.315-1.202-0.413-1.756-0.413
						c2.77,3.836,1.725,9.333,1.666,9.596l-0.285,1.465l-1.25-0.819c-0.171-0.111-17.501-11.291-36.48-11.935
						c-18.6-0.623-40.126,17.642-50.914,35.172c-11.134,18.097-39.228,34.2-54.314,40.113c-6.378,2.496-13.017,3.956-18.883,5.248
						c-7.777,1.706-14.501,3.187-15.509,6.239c-2.155,6.438-12.938,10.539-13.396,10.716l-3.672,1.38l2.551-2.986
						c0.966-1.134,1.386-2.241,1.22-3.312c-0.123-0.885-0.617-1.804-1.125-2.374c-2.264,9.092-11.331,9.037-11.434,9.037h-1.636
						l0.736-1.293c0.031-0.09,0.009-0.472-0.493-1.309c-0.836-1.378-9.538-13.538-57.272-19.986
						c-36.362-4.909-64.071-22.514-80.133-50.943c-6.251-11.053-22.428-17.091-31.926-17.862c-3.35-0.26-4.572,0.289-4.76,0.517
						c-2.785,3.492-15.189,7.914-16.599,8.398l-8.248,2.882l7.377-4.679c1.66-1.06,2.571-2.323,2.774-3.876
						c0.302-2.297-1.027-4.7-2.008-6.117c-1.664,3.033-4.2,3.969-6.161,4.194c-2.406,0.278-4.416-0.45-4.5-0.477l-1.406-0.506
						l0.998-1.124c5.218-5.786,2.058-12.332,1.598-13.199c-1.495-1.719-21.074-24.956-5.018-50.138
						c-3.017-0.265-9.104-1.306-13.028-5.238l-1.966-1.971l2.779,0.246c0.099,0.011,9.15,0.763,13.35-3.539
						c-3.179-1.195-10.558-4.787-11.416-12.497l-0.442-3.926l2.273,3.24c0.263,0.374,6.871,9.196,24.93-0.313
						c4.241-2.233,8.662-4.117,12.929-5.937c15.112-6.438,28.166-12.009,25.907-29.375c-2.735-20.929,1.106-45.377,1.885-49.998
						c-3.586-1.584-20.133-7.897-31.407,5.119l-2.063,2.379l0.285-3.126c0.037-0.328,3.225-30.125,36.099-39.965
						c-4.373-0.22-11.138,0.22-18.521,3.635l-0.521,0.238l-0.477-0.331c-0.674-0.464-16.573-12.07-10.512-66.534
						C24.045-5.541,28.065-10.935,28.5-11.377l0.335-0.321l0.46,0.027c0.219,0.024,22.171,1.926,47.653,13.98
						c23.446,11.077,54.767,33.259,71.093,76.011c2.687,0.654,16.494,3.349,27.794-7.95c12.866-12.86,23.938-32.873,24.048-33.077
						l1.141-2.056l0.709,2.244c0.261,0.821,5.778,18.503,0.946,29.643c5.857-3.312,17.711-8.949,24.827-4.997
						c4.782,2.655,7.821,11.89,7.344,20.498c4.764,1.171,19.647,4.162,26.815-2.207C263.538,78.762,264.88,75.13,266.735,70.107z
						 M352.775-10.376C287.503,19.8,275.23,52.958,268.622,70.809c-1.951,5.299-3.372,9.127-5.623,11.122
						c-7.819,6.954-22.973,4.051-28.326,2.739c-0.164,1.312-0.401,2.594-0.749,3.815c-1.467,5.251-5.872,13.906-18.889,13.906
						c-0.394,0-0.777-0.019-1.182-0.024l-4.127-0.162l3.735-1.754c0.101-0.056,9.376-4.496,10.989-10.547
						c0.534-2.011,0.162-3.932-1.119-5.892l-10.832-4.332l0.499-0.98c0.035-0.093,1.104-2.162,3.457-2.339
						c2.505-0.191,5.318,1.915,8.357,6.26c1.756,2.511,2.292,5.134,1.587,7.794c-1.156,4.31-5.332,7.739-8.465,9.794
						c8.953-1.076,12.586-7.079,14.042-12.271c2.689-9.617-0.804-21.47-5.461-24.05c-8.447-4.689-26.016,6.915-26.198,7.026
						l-5.399,3.6l4.057-5.068c6.164-7.707,2.98-23.234,1.474-29.068c-3.243,5.548-12.605,20.842-23.181,31.421
						c-13.4,13.387-30.111,8.377-30.284,8.311l-0.464-0.141l-0.182-0.466C130.317,37.118,99.337,15.139,76.152,4.169
						C53.35-6.64,33.416-9.192,29.74-9.586c-0.856,1.786-4.513,11.662-9.614,57.572c-5.34,48.045,6.823,62.033,9.253,64.304
						c13.037-5.791,23.871-2.949,24.322-2.816l3.985,1.081l-4.033,0.88c-29.294,6.324-37.08,28.133-38.996,36.322
						c13.42-12.041,31.967-2.994,32.171-2.89l0.679,0.337l-0.147,0.744c-0.05,0.27-4.975,27.365-2.008,50.146
						c2.461,18.892-11.9,25.017-27.115,31.498c-4.23,1.802-8.609,3.672-12.767,5.852c-13.378,7.044-21.131,4.602-24.836,2.159
						c2.726,5.903,10.407,8.062,10.497,8.083l1.349,0.376l-0.771,1.158c-2.969,4.453-9.225,5.407-13.002,5.548
						c4.762,2.938,11.081,2.973,11.151,2.973h1.927l-1.099,1.587c-17.477,25.253,3.07,48.244,3.957,49.2l0.123,0.191
						c0.059,0.085,4.132,7.484-0.773,14.346c2.049,0.284,5.71,0.09,7.355-4.438l0.582-1.568l1.117,1.224
						c0.173,0.18,4.09,4.522,3.49,9c-0.094,0.705-0.296,1.388-0.598,2.021c4.421-1.757,10.206-4.374,11.718-6.258
						c0.72-0.898,2.268-1.343,4.62-1.343c0.58,0,1.2,0.032,1.879,0.085c9.941,0.803,26.91,7.185,33.513,18.876
						c15.977,28.26,42.434,45.067,78.647,49.969c37.884,5.116,55.435,14.714,58.954,21.375c0.287,0.532,0.442,0.983,0.517,1.388
						c2.345-0.342,7.729-1.907,8.701-9.122l0.201-1.552l1.331,0.834c0.105,0.069,2.827,1.796,3.254,4.647
						c0.112,0.715,0.079,1.431-0.12,2.146c3.19-1.566,8.255-4.554,9.496-8.269c1.375-4.144,7.933-5.587,17-7.58
						c5.789-1.272,12.351-2.716,18.576-5.158c14.845-5.807,42.453-21.608,53.335-39.281c11.362-18.468,33.148-36.804,52.687-36.139
						c16.662,0.578,31.619,8.719,36.15,11.421c0.12-2.016-0.072-5.593-2.514-7.617l-1.333-1.118l1.631-0.607
						c0.103-0.042,2.726-0.999,5.069,0.273c1.509,0.816,2.52,2.329,2.993,4.488c0.374,1.677,1.04,2.763,1.992,3.259
						c0.074,0.042,0.16,0.082,0.237,0.111c-1.39-1.526-2.571-3.934-2.203-7.299c0.626-5.59-1.504-9.074-1.531-9.111l-0.477-0.755
						l0.707-0.57c2.636-2.114,4.119-4.912,4.408-8.34c1.075-12.815-14.469-30.395-14.628-30.568l-0.806-0.914l1.049-0.625
						c3.95-2.374,8.725,0.464,11.362,2.493c-2.098-9.75-16.798-10.703-16.958-10.711l-3.403-0.188l2.958-1.701
						c5.137-2.933,7.48-10.632,8.261-13.914c-24.946,5.299-38.799-20.805-38.93-21.086c-0.324-0.644-0.709-1.234-1.139-1.921
						c-2.192-3.412-5.194-8.086-6.039-26.737c-1.009-22.207,11.086-46.681,11.215-46.93l0.407-0.837l0.869,0.371
						c8.318,3.46,19.216,2.999,24.893,2.437c-3.569-1.926-8.848-6.186-12.097-15.3c-4.799-13.45-19.347-17.499-19.498-17.525
						l-3.595-0.975c0.145-0.196,0.302-0.392,0.438-0.591l18.815-2.353C387.644,49.156,356.964-3.594,352.775-10.376z"/>
				</g>
			</g>
		</g>
	</g>
	<g id="g1243">
		<path id="path1229" inkscape:connector-curvature="0" fill="#428BD3" d="M648.689,329.084
			c-14.201,8.57-29.493,12.852-45.865,12.852c-12.664,0-24.749-2.62-36.266-7.863c-11.127-4.989-21.042-12.025-29.743-21.107
			c-8.57-9.209-15.226-19.695-19.958-31.468c-4.865-12.282-7.291-25.139-7.291-38.571c0-13.432,2.426-26.289,7.291-38.566
			c4.732-11.771,11.388-22.257,19.958-31.471c8.701-9.09,18.616-16.121,29.743-21.107c11.513-5.246,23.601-7.866,36.266-7.866
			c16.376,0,31.663,4.284,45.865,12.852c13.685,8.186,24.749,19.448,33.191,33.773c-3.07,2.429-7.928,5.116-14.58,8.059
			c-9.082,3.831-17.267,5.754-24.565,5.754h-1.338c-4.867-6.009-10.558-10.677-17.081-14.01c-6.783-3.449-13.945-5.179-21.493-5.179
			c-7.035,0-13.814,1.534-20.341,4.607c-6.137,2.943-11.642,7.034-16.498,12.282c-4.734,5.37-8.443,11.511-11.127,18.418
			c-2.691,7.161-4.031,14.648-4.031,22.453c0,7.799,1.34,15.286,4.031,22.447c2.684,6.912,6.393,13.051,11.127,18.415
			c4.861,5.375,10.361,9.471,16.498,12.288c6.529,3.063,13.306,4.599,20.341,4.599c7.547,0,14.709-1.727,21.493-5.174
			c6.523-3.333,12.213-7.993,17.081-14.01h1.338c7.293,0,15.482,1.987,24.565,5.95c6.781,2.816,11.64,5.434,14.58,7.871
			C673.442,309.64,662.374,320.897,648.689,329.084z"/>
		<path id="path1231" inkscape:connector-curvature="0" fill="#428BD3" d="M861.678,160.61
			c12.789,9.082,22.835,20.786,30.128,35.111c7.547,14.584,11.322,30.316,11.322,47.205v99.009h-41.45v-99.009
			c0-7.805-1.34-15.287-4.024-22.453c-2.564-6.907-6.273-13.048-11.132-18.418c-4.738-5.248-10.236-9.339-16.503-12.277
			c-6.402-3.078-13.115-4.607-20.148-4.607c-7.035,0-13.748,1.47-20.148,4.411c-6.142,2.946-11.642,7.037-16.496,12.282
			c-4.736,5.248-8.447,11.257-11.134,18.031c-2.814,7.042-4.224,14.463-4.224,22.267v99.778h-41.258V62.36
			c6.144-4.731,14.521-8.186,25.138-10.361c6.269-1.277,10.939-1.921,14.007-1.921c0.768,0,1.471,0.069,2.113,0.193V160.8
			c15.603-11.254,32.935-16.889,51.997-16.889C828.808,143.911,846.068,149.48,861.678,160.61z"/>
		<path id="path1233" inkscape:connector-curvature="0" fill="#428BD3" d="M1090.219,143.911c0.642-0.125,1.342-0.188,2.111-0.188
			c3.07,0,7.679,0.639,13.82,1.913c10.615,2.051,19.058,5.505,25.324,10.364v185.936h-41.256v-16.889
			c-15.734,11.26-33.069,16.889-52.004,16.889c-12.66,0-24.751-2.625-36.268-7.868c-11.125-4.989-21.042-12.02-29.741-21.102
			c-8.57-9.087-15.228-19.576-19.953-31.474c-4.865-12.277-7.296-25.134-7.296-38.566c0-13.432,2.43-26.289,7.296-38.571
			c4.729-11.765,11.384-22.259,19.953-31.466c8.699-9.084,18.615-16.121,29.741-21.107c11.517-5.248,23.608-7.871,36.268-7.871
			c18.935,0,36.274,5.63,52.004,16.889V143.911z M1038.215,300.681c7.039,0,13.748-1.531,20.148-4.604
			c6.264-2.806,11.769-6.907,16.505-12.28c4.859-5.373,8.566-11.511,11.13-18.421c2.809-7.164,4.221-14.645,4.221-22.45
			c0-7.8-1.412-15.287-4.221-22.448c-2.564-6.912-6.271-13.048-11.13-18.423c-4.736-5.243-10.24-9.333-16.505-12.277
			c-6.4-3.078-13.113-4.607-20.148-4.607c-7.033,0-13.816,1.529-20.341,4.607c-6.14,2.943-11.637,7.034-16.505,12.277
			c-4.729,5.375-8.441,11.511-11.123,18.423c-2.689,7.161-4.035,14.648-4.035,22.448c0,7.805,1.347,15.286,4.035,22.45
			c2.682,6.909,6.393,13.051,11.123,18.421c4.867,5.373,10.365,9.474,16.505,12.28
			C1024.399,299.149,1031.178,300.681,1038.215,300.681z"/>
		<path id="path1235" inkscape:connector-curvature="0" fill="#428BD3" d="M1281.334,143.911c0.125,0.638,0.197,1.341,0.197,2.114
			c0,3.198-0.646,7.863-1.925,14.004c-2.049,10.359-5.439,18.746-10.171,25.136c-8.057,0.763-16.115,3.712-24.175,8.83
			c-16.122,10.234-24.179,26.543-24.179,48.93v99.009h-41.253V156c6.14-4.859,14.515-8.313,25.138-10.359
			c6.26-1.28,10.935-1.918,14.002-1.918c0.769,0,1.469,0.064,2.113,0.194v16.693c2.947-2.045,5.82-3.842,8.633-5.373
			c2.179-1.28,4.224-2.3,6.144-3.073c3.195-1.534,6.391-2.819,9.593-3.836c2.172-0.768,4.346-1.412,6.523-1.918
			c1.537-0.389,2.689-0.638,3.451-0.768c2.049-0.382,4.348-0.771,6.91-1.15c3.453-0.384,7.033-0.575,10.744-0.575h8.25v-0.005
			H1281.334z"/>
		<path id="path1237" inkscape:connector-curvature="0" fill="#428BD3" d="M1413.351,143.911c0.125,0.638,0.197,1.341,0.197,2.114
			c0,3.198-0.642,7.863-1.922,14.004c-2.052,10.359-5.441,18.746-10.17,25.136c-8.055,0.763-16.113,3.712-24.177,8.83
			c-16.117,10.234-24.175,26.543-24.175,48.93v99.009h-41.258V156c6.142-4.859,14.519-8.313,25.143-10.359
			c6.26-1.28,10.928-1.918,14.002-1.918c0.766,0,1.469,0.064,2.113,0.194v16.693c2.941-2.045,5.82-3.842,8.631-5.373
			c2.176-1.28,4.226-2.3,6.144-3.073c3.195-1.534,6.391-2.819,9.59-3.836c2.174-0.768,4.346-1.412,6.527-1.918
			c1.531-0.389,2.687-0.638,3.451-0.768c2.047-0.382,4.351-0.771,6.91-1.15c3.451-0.384,7.035-0.575,10.746-0.575h8.248V143.911
			L1413.351,143.911z"/>
		<path id="path1239" inkscape:connector-curvature="0" fill="#428BD3" d="M1486.274,341.935h-41.262V62.36
			c6.144-4.731,14.521-8.186,25.138-10.361c6.264-1.277,10.939-1.921,14.009-1.921c0.764,0,1.467,0.069,2.111,0.193v291.664
			H1486.274z"/>
		<path id="path1241" inkscape:connector-curvature="0" fill="#428BD3" d="M1594.688,424.641c-4.48,1.409-9.531,2.112-15.167,2.112
			c-3.711,0-7.668-0.323-11.896-0.962c-7.799-1.15-13.043-2.429-15.734-3.836l28.208-80.21c-2.813-8.184-6.271-18.481-10.365-30.893
			c-8.314-24.684-15.988-47.33-23.023-67.925c-9.722-28.906-17.335-51.614-22.833-68.122l-10.368-30.888h43.756l45.667,136.431
			l49.123-136.431h43.754L1594.688,424.641z"/>
	</g>
</g>
</svg>
